<svg xmlns="http://www.w3.org/2000/svg" width="60" height="60" viewBox="0 0 60 60" fill="none">
  <rect width="60" height="60" rx="5" fill="#EAEAEA"/>
  <path d="M30.5934 39.8442V22.0032C30.5934 21.6732 30.326 21.4058 29.9959 21.4058C29.6659 21.4058 29.3984 21.6732 29.3984 22.0032V39.8442C29.3984 40.1742 29.6659 40.4417 29.9959 40.4417C30.326 40.4417 30.5934 40.1742 30.5934 39.8442Z" fill="#9CA0A4"/>
  <path d="M47.927 17.5149C46.6638 17.5149 45.0898 16.9699 43.4233 16.3929C41.3128 15.662 38.9206 14.8337 36.4397 14.8337C33.569 14.8337 31.8176 16.0917 30.854 17.147C30.4936 17.5419 30.2143 17.9375 30.0025 18.2884C29.7908 17.9375 29.5115 17.5419 29.1511 17.147C28.1874 16.0917 26.4361 14.8337 23.5654 14.8337C21.0844 14.8337 18.6923 15.662 16.5818 16.3929C14.9151 16.9699 13.3411 17.5149 12.078 17.5149C11.7479 17.5149 11.4805 17.7824 11.4805 18.1124V42.1784C11.4805 42.5085 11.7479 42.7759 12.078 42.7759C13.5422 42.7759 15.2085 42.1989 16.9726 41.588C18.9941 40.8881 21.2853 40.0947 23.5653 40.0947C25.5202 40.0947 27.1026 40.7421 28.2685 42.0188C28.4909 42.2624 28.8689 42.2795 29.1126 42.057C29.3563 41.8345 29.3734 41.4566 29.1509 41.2129C28.1872 40.1577 26.4359 38.8997 23.5653 38.8997C21.0843 38.8997 18.6921 39.7279 16.5816 40.4588C15.1688 40.9482 13.8223 41.4143 12.6754 41.5449V18.6803C13.9892 18.5551 15.4442 18.0512 16.9726 17.522C18.9941 16.8221 21.2853 16.0287 23.5653 16.0287C28.1763 16.0287 29.3828 19.6902 29.4313 19.8442C29.5084 20.0949 29.7401 20.2662 30.0025 20.2662C30.2649 20.2662 30.4965 20.095 30.5737 19.8442C30.5853 19.806 31.7991 16.0287 36.4397 16.0287C38.7196 16.0287 41.0108 16.8221 43.0323 17.522C44.5608 18.0513 46.0158 18.5551 47.3295 18.6803V41.5449C46.1826 41.4143 44.8362 40.9482 43.4233 40.4589C41.3128 39.728 38.9206 38.8998 36.4397 38.8998C33.5689 38.8998 31.8175 40.1577 30.854 41.2131C30.6315 41.4568 30.6486 41.8347 30.8922 42.0572C31.136 42.2797 31.5139 42.2626 31.7364 42.0189C32.9023 40.7422 34.4846 40.0948 36.4397 40.0948C38.7196 40.0948 41.0108 40.8882 43.0323 41.5881C44.7965 42.199 46.4628 42.776 47.927 42.776C48.257 42.776 48.5245 42.5086 48.5245 42.1785V18.1124C48.5245 17.7824 48.257 17.5149 47.927 17.5149Z" fill="#9CA0A4"/>
  <path d="M47.927 43.9712C46.6638 43.9712 45.0898 43.4262 43.4233 42.8492C41.3128 42.1183 38.9206 41.29 36.4397 41.29C33.7436 41.29 32.035 42.3996 31.0387 43.4088L28.9661 43.4087C27.9699 42.3995 26.2612 41.29 23.5653 41.29C21.0843 41.29 18.6921 42.1183 16.5816 42.8492C14.9151 43.4262 13.3411 43.9712 12.078 43.9712C11.7479 43.9712 11.4805 44.2387 11.4805 44.5687C11.4805 44.8988 11.7479 45.1662 12.078 45.1662C13.5422 45.1662 15.2085 44.5892 16.9726 43.9783C18.9941 43.2784 21.2853 42.485 23.5653 42.485C25.5202 42.485 27.1026 43.1324 28.2685 44.4091C28.3817 44.533 28.5418 44.6036 28.7097 44.6036L31.2951 44.6037C31.463 44.6037 31.6231 44.533 31.7363 44.4091C32.9022 43.1324 34.4846 42.485 36.4396 42.485C38.7195 42.485 41.0108 43.2784 43.0322 43.9783C44.7964 44.5892 46.4628 45.1662 47.9269 45.1662C48.257 45.1662 48.5244 44.8988 48.5244 44.5687C48.5244 44.2387 48.257 43.9712 47.927 43.9712Z" fill="#9CA0A4"/>
</svg>
