<svg xmlns="http://www.w3.org/2000/svg" width="60" height="60" viewBox="0 0 60 60" fill="none">
  <rect width="60" height="60" rx="5" fill="#FDF0D8"/>
  <path d="M38.6753 31.9236H32.1192L33.1452 21.6636H33.2061C33.9134 21.6636 34.4886 21.0884 34.4886 20.3811V19.0986C34.4886 18.3913 33.9134 17.8161 33.2061 17.8161H24.7589L25.2719 13.9686H34.4886V10.1211H24.7102C23.1096 10.1211 21.7438 11.317 21.5321 12.9041L20.8774 17.8161H11.4036C10.6963 17.8161 10.1211 18.3913 10.1211 19.0986V20.3811C10.1211 21.0884 10.6963 21.6636 11.4036 21.6636H11.4645L13.741 44.4267C13.9051 46.0721 15.2774 47.3136 16.9312 47.3136H19.8367L19.0986 48.3986V49.8786H49.8786V48.3986L38.6753 31.9236ZM37.1119 33.2061L26.4576 48.5961H24.1702L34.8246 33.2061H37.1119ZM31.5837 24.3876C31.0335 24.2844 30.5026 24.2286 29.9998 24.2286C27.8132 24.2286 25.649 25.0827 23.6707 25.9786L24.2459 21.6636H31.8563L31.5837 24.3876ZM19.5532 27.7478C18.928 27.9491 18.3419 28.0761 17.8161 28.0761C15.035 28.0761 13.3273 27.329 13.3273 26.7936C13.3273 26.2582 15.035 25.5111 17.8161 25.5111C18.3932 25.5111 19.0652 25.6137 19.8123 25.8074L19.5532 27.7478ZM21.6585 21.6636H22.9525L22.2927 26.6121C21.8239 26.8295 21.3641 27.0379 20.9165 27.2284L21.6585 21.6636ZM22.8037 13.0734C22.9307 12.1212 23.7502 11.4036 24.7102 11.4036H33.2061V12.6861H25.2719C24.6319 12.6861 24.0856 13.1645 24.001 13.7993L23.4649 17.8161H22.1708L22.8037 13.0734ZM11.4036 19.0986H33.2061V20.3811H11.4036V19.0986ZM20.3644 21.6636L19.9829 24.5255C19.1877 24.3299 18.4606 24.2286 17.8161 24.2286C16.1193 24.2286 14.2456 24.503 13.1061 25.1911L12.7534 21.6636H20.3644ZM16.9312 46.0311C15.9385 46.0311 15.1158 45.2866 15.017 44.2991L13.4447 28.5782C14.5957 29.1322 16.2784 29.3586 17.8161 29.3586C19.4263 29.3586 21.2474 28.5128 23.1757 27.617C25.404 26.5813 27.7087 25.5111 29.9998 25.5111C30.4532 25.5111 30.9457 25.5797 31.4542 25.6823L30.8303 31.9236H30.3019L20.7088 46.0311H16.9312ZM30.9803 33.2061H33.2644L22.6101 48.5961H20.5158L30.9803 33.2061ZM28.0177 48.5961L38.3316 33.6986L48.4621 48.5961H28.0177Z" fill="#EDAC63"/>
  <path d="M42.1836 43.4663H43.4661V44.7488H42.1836V43.4663Z" fill="#EDAC63"/>
  <path d="M39.6172 43.4663H40.8997V44.7488H39.6172V43.4663Z" fill="#EDAC63"/>
  <path d="M37.0547 43.4663H38.3372V44.7488H37.0547V43.4663Z" fill="#EDAC63"/>
  <path d="M42.1836 46.0312H43.4661V47.3138H42.1836V46.0312Z" fill="#EDAC63"/>
  <path d="M39.6172 46.0312H40.8997V47.3138H39.6172V46.0312Z" fill="#EDAC63"/>
  <path d="M37.0547 46.0312H38.3372V47.3138H37.0547V46.0312Z" fill="#EDAC63"/>
  <path d="M22.3031 37.6952C22.3031 37.111 22.0755 36.5608 21.6619 36.1472L20.6455 35.1302C19.8189 34.3036 18.3748 34.3036 17.5489 35.1302L16.5319 36.1472C16.1183 36.5615 15.8906 37.111 15.8906 37.6952C15.8906 38.2794 16.1183 38.8296 16.5319 39.2432L16.9076 39.6189L16.5319 39.9947C16.1183 40.409 15.8906 40.9585 15.8906 41.5427C15.8906 42.1269 16.1183 42.6771 16.5319 43.0907L17.5483 44.1077C17.9619 44.5213 18.5114 44.7489 19.0969 44.7489C19.6823 44.7489 20.2319 44.5213 20.6449 44.1077L21.6619 43.0907C22.0755 42.6764 22.3031 42.1269 22.3031 41.5427C22.3031 40.9585 22.0755 40.4083 21.6619 39.9947L21.2861 39.6189L21.6619 39.2432C22.0755 38.8296 22.3031 38.2794 22.3031 37.6952ZM17.4386 37.0539L18.4556 36.0369C18.6268 35.8651 18.8545 35.7714 19.0969 35.7714C19.3393 35.7714 19.5669 35.8651 19.7381 36.0369L20.7545 37.0539C20.9264 37.2258 21.0206 37.4528 21.0206 37.6952C21.0206 37.9376 20.9264 38.1646 20.7551 38.3364L19.7381 39.3535C19.3963 39.6965 18.7987 39.6965 18.4556 39.3535L17.4392 38.3364C17.2674 38.1646 17.1731 37.9376 17.1731 37.6952C17.1731 37.4528 17.2674 37.2258 17.4386 37.0539ZM20.7551 42.1839L19.7381 43.201C19.3963 43.544 18.7987 43.544 18.4556 43.201L17.4392 42.1839C17.2674 42.0121 17.1731 41.7851 17.1731 41.5427C17.1731 41.3003 17.2674 41.0733 17.4386 40.9014L17.84 40.5C18.2062 40.7584 18.6397 40.9014 19.0969 40.9014C19.5541 40.9014 19.9876 40.7584 20.3537 40.5L20.7545 40.9014C20.9264 41.0733 21.0206 41.3003 21.0206 41.5427C21.0206 41.7851 20.9264 42.0121 20.7551 42.1839Z" fill="#EDAC63"/>
  <path d="M26.4189 30.0003C25.5924 29.1737 24.1483 29.1737 23.3223 30.0003L22.3053 31.0173C21.8917 31.4316 21.6641 31.9811 21.6641 32.5653C21.6641 33.1495 21.8917 33.6997 22.3053 34.1133L23.3217 35.1303C23.7353 35.5439 24.2849 35.7715 24.8703 35.7715C25.4558 35.7715 26.0053 35.5439 26.4183 35.1303L27.4353 34.1133C27.8489 33.699 28.0766 33.1495 28.0766 32.5653C28.0766 31.9811 27.8489 31.4309 27.4353 31.0173L26.4189 30.0003ZM26.5286 33.2065L25.5116 34.2236C25.1698 34.5666 24.5721 34.5666 24.2291 34.2236L23.212 33.2065C23.0408 33.0347 22.9466 32.8071 22.9466 32.5653C22.9466 32.3229 23.0408 32.0959 23.212 31.924L24.2291 30.907C24.5708 30.564 25.1685 30.564 25.5116 30.907L26.5279 31.924C26.6998 32.0959 26.7941 32.3229 26.7941 32.5653C26.7941 32.8077 26.6998 33.0347 26.5286 33.2065Z" fill="#EDAC63"/>
</svg>
