<svg xmlns="http://www.w3.org/2000/svg" width="60" height="60" viewBox="0 0 60 60" fill="none">
  <rect width="60" height="60" rx="5" fill="#F3E9E9"/>
  <path d="M36.376 18.9741L21.4668 24.7056L21.4844 24.8022H42.8379L42.8125 24.7339L41.4678 21.2388L41.4531 21.1978L41.4102 21.2075C40.4538 21.4234 39.4535 21.3246 38.5576 20.9263C37.6616 20.5278 36.9178 19.8506 36.4375 18.9956L36.416 18.9585L36.376 18.9741ZM49.0811 29.9116L49.0381 29.9058C48.068 29.7641 47.1698 29.3128 46.4766 28.6196C45.7832 27.9263 45.3321 27.0274 45.1904 26.0571L45.1836 26.0142H43.0752V27.3765C43.0752 27.5372 43.011 27.6915 42.8975 27.8052C42.7838 27.9189 42.6295 27.9829 42.4688 27.9829C42.308 27.9829 42.1537 27.9189 42.04 27.8052C41.9265 27.6915 41.8623 27.5372 41.8623 27.3765V26.0142H14.8164L14.8096 26.0571C14.6679 27.0274 14.2168 27.9263 13.5234 28.6196C12.8302 29.3128 11.932 29.7641 10.9619 29.9058L10.9189 29.9116V39.2798L10.9619 39.2856C11.932 39.4274 12.8302 39.8786 13.5234 40.5718C14.2168 41.2652 14.6679 42.164 14.8096 43.1343L14.8164 43.1772H18.8438C19.0044 43.1772 19.1588 43.2404 19.2725 43.354C19.3861 43.4676 19.4501 43.6221 19.4502 43.7827C19.4502 43.9434 19.386 44.0978 19.2725 44.2114C19.1588 44.3251 19.0045 44.3892 18.8438 44.3892H14.25C14.0892 44.3892 13.935 44.3251 13.8213 44.2114C13.7077 44.0978 13.6436 43.9434 13.6436 43.7827C13.6424 42.8997 13.2914 42.0526 12.667 41.4282C12.0425 40.8038 11.1956 40.4527 10.3125 40.4517C10.1517 40.4517 9.99748 40.3876 9.88379 40.2739C9.77022 40.1603 9.70605 40.0059 9.70605 39.8452V29.3452C9.70616 29.1846 9.77019 29.0301 9.88379 28.9165C9.99746 28.8029 10.1518 28.7397 10.3125 28.7397C11.1957 28.7387 12.0425 28.3867 12.667 27.7622C13.2914 27.1377 13.6425 26.2908 13.6436 25.4077C13.6437 25.2471 13.7077 25.0926 13.8213 24.979C13.935 24.8654 14.0893 24.8022 14.25 24.8022H17.8359L17.8447 24.7983L36.5098 17.6226C36.6598 17.5651 36.8269 17.5699 36.9736 17.6353C37.1203 17.7006 37.2353 17.8213 37.293 17.9712V17.9722C37.6111 18.7959 38.2429 19.4601 39.0498 19.8188C39.8569 20.1777 40.7738 20.2021 41.5986 19.8862C41.7487 19.8287 41.9156 19.8326 42.0625 19.8979C42.1725 19.9469 42.2646 20.0272 42.3281 20.1274L42.3818 20.2349L44.125 24.77L44.1377 24.8022H45.75C45.9107 24.8022 46.065 24.8654 46.1787 24.979C46.2923 25.0926 46.3563 25.2471 46.3564 25.4077C46.3575 26.2908 46.7086 27.1377 47.333 27.7622C47.9185 28.3477 48.6994 28.6932 49.5225 28.7349L49.6875 28.7397C49.8482 28.7397 50.0025 28.8029 50.1162 28.9165C50.2298 29.0301 50.2938 29.1846 50.2939 29.3452V39.8452C50.2939 40.0059 50.2298 40.1603 50.1162 40.2739C50.031 40.3591 49.923 40.4166 49.8066 40.4399L49.6875 40.4517C48.8044 40.4527 47.9575 40.8038 47.333 41.4282C46.7086 42.0526 46.3576 42.8997 46.3564 43.7827C46.3564 43.9434 46.2923 44.0978 46.1787 44.2114C46.065 44.3251 45.9108 44.3892 45.75 44.3892H21.4688C21.308 44.3892 21.1537 44.3251 21.04 44.2114C20.9265 44.0978 20.8623 43.9434 20.8623 43.7827C20.8624 43.6221 20.9264 43.4676 21.04 43.354C21.1537 43.2404 21.3081 43.1772 21.4688 43.1772H41.8623V41.814C41.8624 41.6533 41.9264 41.4989 42.04 41.3853C42.1537 41.2717 42.3081 41.2085 42.4688 41.2085C42.6294 41.2085 42.7838 41.2717 42.8975 41.3853C43.0111 41.4989 43.0751 41.6533 43.0752 41.814V43.1772H45.1836L45.1904 43.1343C45.3321 42.164 45.7832 41.2652 46.4766 40.5718C47.1698 39.8786 48.068 39.4274 49.0381 39.2856L49.0811 39.2798V29.9116Z" fill="#D35454" stroke="#F3E9E9" stroke-width="0.1"/>
  <path d="M42.4688 29.3953C42.6295 29.3953 42.7838 29.4593 42.8975 29.573C43.0112 29.6867 43.0752 29.8409 43.0752 30.0017V31.3142C43.0752 31.475 43.0112 31.6292 42.8975 31.7429C42.7838 31.8566 42.6295 31.9207 42.4688 31.9207C42.308 31.9207 42.1537 31.8566 42.04 31.7429C41.9263 31.6292 41.8623 31.475 41.8623 31.3142V30.0017C41.8623 29.8409 41.9263 29.6867 42.04 29.573C42.1537 29.4593 42.308 29.3953 42.4688 29.3953Z" fill="#D35454" stroke="#F3E9E9" stroke-width="0.1"/>
  <path d="M42.4688 33.3328C42.6295 33.3328 42.7838 33.3968 42.8975 33.5105C43.0112 33.6242 43.0752 33.7784 43.0752 33.9392V35.2517C43.0752 35.4125 43.0112 35.5667 42.8975 35.6804C42.7838 35.7941 42.6295 35.8582 42.4688 35.8582C42.308 35.8582 42.1537 35.7941 42.04 35.6804C41.9263 35.5667 41.8623 35.4125 41.8623 35.2517V33.9392C41.8623 33.7784 41.9263 33.6242 42.04 33.5105C42.1537 33.3968 42.308 33.3328 42.4688 33.3328Z" fill="#D35454" stroke="#F3E9E9" stroke-width="0.1"/>
  <path d="M42.4688 37.2703C42.6295 37.2703 42.7838 37.3343 42.8975 37.448C43.0112 37.5617 43.0752 37.7159 43.0752 37.8767V39.1892C43.0752 39.35 43.0112 39.5042 42.8975 39.6179C42.7838 39.7316 42.6295 39.7957 42.4688 39.7957C42.308 39.7957 42.1537 39.7316 42.04 39.6179C41.9263 39.5042 41.8623 39.35 41.8623 39.1892V37.8767C41.8623 37.7159 41.9263 37.5617 42.04 37.448C42.1537 37.3343 42.308 37.2703 42.4688 37.2703Z" fill="#D35454" stroke="#F3E9E9" stroke-width="0.1"/>
  <path d="M20.6074 32.0564C20.7299 32.0125 20.8638 32.0089 20.9883 32.0466C21.1128 32.0844 21.2223 32.1609 21.2998 32.2654C21.3773 32.3698 21.4189 32.4967 21.4189 32.6267V36.5642C21.4189 36.725 21.3549 36.8792 21.2412 36.9929C21.1275 37.1066 20.9733 37.1707 20.8125 37.1707C20.6517 37.1707 20.4975 37.1066 20.3838 36.9929C20.2701 36.8792 20.2061 36.725 20.2061 36.5642V34.6287L20.1143 34.7664L20.0049 34.9314C19.8941 35.0976 19.6987 35.1833 19.5 35.1833C19.3013 35.1833 19.1068 35.0976 18.9961 34.9314H18.9951L18.8857 34.7664L18.7939 34.6287V36.5642C18.7939 36.725 18.7299 36.8792 18.6162 36.9929C18.5025 37.1066 18.3483 37.1707 18.1875 37.1707C18.0267 37.1707 17.8725 37.1066 17.7588 36.9929C17.6451 36.8792 17.5811 36.725 17.5811 36.5642V32.6267C17.5811 32.4967 17.6227 32.3698 17.7002 32.2654C17.7777 32.1609 17.8872 32.0844 18.0117 32.0466C18.1362 32.0089 18.2701 32.0125 18.3926 32.0564C18.5148 32.1004 18.6203 32.1827 18.6924 32.2908L19.458 33.4402L19.5 33.5027L19.542 33.4402L20.3076 32.2908C20.3797 32.1827 20.4852 32.1004 20.6074 32.0564Z" fill="#D35454" stroke="#F3E9E9" stroke-width="0.1"/>
  <path d="M24.0938 32.0203C24.6026 32.0203 25.0904 32.2229 25.4502 32.5828C25.81 32.9426 26.0127 33.4303 26.0127 33.9392V35.2517C26.0127 35.7606 25.81 36.2483 25.4502 36.6082C25.0904 36.968 24.6026 37.1707 24.0938 37.1707C23.5849 37.1707 23.0971 36.968 22.7373 36.6082C22.3775 36.2483 22.1748 35.7606 22.1748 35.2517V33.9392C22.1748 33.4303 22.3775 32.9426 22.7373 32.5828C23.0971 32.2229 23.5849 32.0203 24.0938 32.0203ZM24.0938 33.2332C23.9064 33.2332 23.7272 33.3077 23.5947 33.4402C23.4623 33.5726 23.3877 33.7519 23.3877 33.9392V35.2517C23.3877 35.439 23.4623 35.6183 23.5947 35.7507C23.7272 35.8832 23.9064 35.9578 24.0938 35.9578C24.2811 35.9578 24.4603 35.8832 24.5928 35.7507C24.7252 35.6183 24.7998 35.439 24.7998 35.2517V33.9392C24.7998 33.7519 24.7252 33.5726 24.5928 33.4402C24.4603 33.3077 24.2811 33.2332 24.0938 33.2332Z" fill="#D35454" stroke="#F3E9E9" stroke-width="0.1"/>
  <path d="M29.96 32.0056C30.0407 31.9994 30.1224 32.0093 30.1992 32.0349C30.276 32.0605 30.3474 32.1015 30.4082 32.155C30.4689 32.2085 30.5186 32.2736 30.5537 32.3464C30.5889 32.4193 30.6082 32.499 30.6123 32.5798C30.6163 32.6605 30.6047 32.7412 30.5771 32.8171L30.5762 32.8191L29.2637 36.7566C29.2233 36.8769 29.146 36.9813 29.043 37.0554C28.9399 37.1296 28.8164 37.1696 28.6895 37.1697C28.5624 37.1697 28.4381 37.1297 28.335 37.0554C28.232 36.9813 28.1546 36.8769 28.1143 36.7566L26.8018 32.8191V32.8171L26.7715 32.7C26.7655 32.6603 26.7636 32.6201 26.7656 32.5798C26.7697 32.4989 26.79 32.4194 26.8252 32.3464C26.8604 32.2735 26.9099 32.2085 26.9707 32.155C27.0315 32.1015 27.1029 32.0605 27.1797 32.0349C27.2564 32.0094 27.3374 31.9994 27.418 32.0056C27.4987 32.0119 27.5775 32.0339 27.6494 32.071C27.7214 32.1082 27.7851 32.1602 27.8369 32.2224C27.8886 32.2845 27.9276 32.3561 27.9512 32.4333V32.4353L28.6416 34.5046L28.6895 34.6472L28.7363 34.5046L29.4268 32.4353L29.4277 32.4333C29.4513 32.3562 29.4895 32.2844 29.541 32.2224C29.5928 32.1602 29.6575 32.1082 29.7295 32.071C29.8012 32.0341 29.8796 32.0119 29.96 32.0056Z" fill="#D35454" stroke="#F3E9E9" stroke-width="0.1"/>
  <path d="M31.9688 32.0203C32.1295 32.0203 32.2838 32.0843 32.3975 32.198C32.5112 32.3117 32.5752 32.4659 32.5752 32.6267V36.5642C32.5752 36.725 32.5112 36.8792 32.3975 36.9929C32.2838 37.1066 32.1295 37.1707 31.9688 37.1707C31.808 37.1707 31.6537 37.1066 31.54 36.9929C31.4263 36.8792 31.3623 36.725 31.3623 36.5642V32.6267C31.3623 32.4659 31.4263 32.3117 31.54 32.198C31.6537 32.0843 31.808 32.0203 31.9688 32.0203Z" fill="#D35454" stroke="#F3E9E9" stroke-width="0.1"/>
  <path d="M33.9375 32.0203H35.9062C36.067 32.0203 36.2213 32.0843 36.335 32.198C36.4487 32.3117 36.5127 32.4659 36.5127 32.6267C36.5127 32.7875 36.4487 32.9417 36.335 33.0554C36.2213 33.1691 36.067 33.2332 35.9062 33.2332H34.5439V33.989H35.9062C36.067 33.989 36.2213 34.0531 36.335 34.1667C36.4487 34.2804 36.5127 34.4347 36.5127 34.5955C36.5127 34.7562 36.4487 34.9105 36.335 35.0242C36.2213 35.1379 36.067 35.2019 35.9062 35.2019H34.5439V35.9578H35.9062C36.067 35.9578 36.2213 36.0218 36.335 36.1355C36.4487 36.2492 36.5127 36.4034 36.5127 36.5642C36.5127 36.725 36.4487 36.8792 36.335 36.9929C36.2213 37.1066 36.067 37.1707 35.9062 37.1707H33.9375C33.7767 37.1707 33.6225 37.1066 33.5088 36.9929C33.3951 36.8792 33.3311 36.725 33.3311 36.5642V32.6267C33.3311 32.4659 33.3951 32.3117 33.5088 32.198C33.6225 32.0843 33.7767 32.0203 33.9375 32.0203Z" fill="#D35454" stroke="#F3E9E9" stroke-width="0.1"/>
  <path d="M17.5312 28.0828H31.9688C32.1295 28.0828 32.2838 28.1468 32.3975 28.2605C32.5112 28.3742 32.5752 28.5284 32.5752 28.6892C32.5752 28.85 32.5112 29.0042 32.3975 29.1179C32.2838 29.2316 32.1295 29.2957 31.9688 29.2957H17.5312L17.332 29.3054C16.87 29.3517 16.4357 29.5562 16.1045 29.8875C15.726 30.2659 15.5133 30.779 15.5127 31.3142V37.8767C15.5133 38.4119 15.726 38.925 16.1045 39.3035C16.4357 39.6347 16.87 39.8392 17.332 39.8855L17.5312 39.8953H37.2188C37.754 39.8947 38.2671 39.6819 38.6455 39.3035C39.024 38.925 39.2367 38.4119 39.2373 37.8767V31.3142L39.2275 31.115C39.1813 30.6529 38.9767 30.2187 38.6455 29.8875C38.2671 29.509 37.754 29.2963 37.2188 29.2957H34.5938C34.433 29.2957 34.2787 29.2316 34.165 29.1179C34.0513 29.0042 33.9873 28.85 33.9873 28.6892C33.9873 28.5284 34.0513 28.3742 34.165 28.2605C34.2787 28.1468 34.433 28.0828 34.5938 28.0828H37.2188C38.0754 28.0838 38.8972 28.4243 39.5029 29.03C40.1087 29.6358 40.4492 30.4575 40.4502 31.3142V37.8767L40.4463 38.0369C40.4058 38.8352 40.0708 39.593 39.5029 40.1609C38.8972 40.7666 38.0754 41.1071 37.2188 41.1082H17.5312C16.6746 41.1071 15.8528 40.7666 15.2471 40.1609C14.6413 39.5551 14.3008 38.7334 14.2998 37.8767V31.3142C14.3008 30.4575 14.6413 29.6358 15.2471 29.03C15.8528 28.4243 16.6746 28.0838 17.5312 28.0828Z" fill="#D35454" stroke="#F3E9E9" stroke-width="0.1"/>
  <path d="M19.4971 15.6223C19.656 15.6237 19.8085 15.6876 19.9209 15.8C20.0332 15.9124 20.0963 16.065 20.0977 16.2239C20.0989 16.3827 20.038 16.5354 19.9277 16.6497L18.6162 17.9622C18.56 18.0185 18.4925 18.0625 18.4189 18.093C18.3455 18.1234 18.267 18.14 18.1875 18.1399C18.0676 18.1399 17.9503 18.104 17.8506 18.0374C17.7509 17.9707 17.6728 17.8757 17.627 17.7649C17.5813 17.6543 17.5695 17.5326 17.5928 17.4153C17.6161 17.2977 17.6741 17.1895 17.7588 17.1047L19.0703 15.7913C19.1846 15.6812 19.3384 15.6209 19.4971 15.6223Z" fill="#D35454" stroke="#F3E9E9" stroke-width="0.1"/>
  <path d="M14.9092 15.6223C15.0283 15.6214 15.1445 15.6553 15.2432 15.719L15.335 15.7922L16.6475 17.1047C16.7297 17.1903 16.7849 17.2974 16.8066 17.4124L16.8164 17.5305C16.815 17.6894 16.751 17.841 16.6387 17.9534C16.5263 18.0657 16.3747 18.1297 16.2158 18.1311C16.0569 18.1325 15.9034 18.0716 15.7891 17.9612L14.4775 16.6497C14.3674 16.5355 14.3063 16.3825 14.3076 16.2239C14.309 16.0649 14.3729 15.9125 14.4854 15.8C14.5978 15.6876 14.7502 15.6237 14.9092 15.6223Z" fill="#D35454" stroke="#F3E9E9" stroke-width="0.1"/>
  <path d="M18.1904 18.9036C18.3096 18.9026 18.4257 18.9365 18.5244 19.0002L18.6162 19.0735L19.9287 20.386C20.011 20.4715 20.0661 20.5786 20.0879 20.6936L20.0977 20.8118C20.0962 20.9707 20.0323 21.1222 19.9199 21.2346C19.8075 21.347 19.656 21.4109 19.4971 21.4124C19.3381 21.4137 19.1847 21.3529 19.0703 21.2424L17.7588 19.9309C17.6487 19.8167 17.5876 19.6638 17.5889 19.5051C17.5902 19.3462 17.6542 19.1937 17.7666 19.0813C17.879 18.9689 18.0315 18.9049 18.1904 18.9036Z" fill="#D35454" stroke="#F3E9E9" stroke-width="0.1"/>
  <path d="M16.2158 18.9036C16.3748 18.9049 16.5272 18.9689 16.6396 19.0813C16.7519 19.1937 16.815 19.3463 16.8164 19.5051C16.8177 19.6639 16.7568 19.8167 16.6465 19.9309L15.335 21.2434C15.2788 21.2998 15.2112 21.3438 15.1377 21.3743C15.0643 21.4047 14.9857 21.4212 14.9062 21.4211C14.7864 21.4211 14.669 21.3852 14.5693 21.3186C14.4697 21.252 14.3916 21.1569 14.3457 21.0461C14.3 20.9356 14.2883 20.8139 14.3115 20.6965C14.3349 20.579 14.3928 20.4708 14.4775 20.386L15.7891 19.0725C15.9033 18.9624 16.0571 18.9022 16.2158 18.9036Z" fill="#D35454" stroke="#F3E9E9" stroke-width="0.1"/>
  <path d="M49.6846 17.5911C49.8435 17.5924 49.996 17.6564 50.1084 17.7688C50.2207 17.8812 50.2838 18.0338 50.2852 18.1926C50.2864 18.3514 50.2255 18.5042 50.1152 18.6184L48.8037 19.9309C48.7475 19.9873 48.68 20.0313 48.6064 20.0618C48.533 20.0922 48.4545 20.1087 48.375 20.1086C48.2551 20.1086 48.1378 20.0727 48.0381 20.0061C47.9384 19.9395 47.8603 19.8444 47.8145 19.7336C47.7688 19.6231 47.757 19.5014 47.7803 19.384C47.8036 19.2665 47.8616 19.1583 47.9463 19.0735L49.2578 17.76C49.3721 17.6499 49.5259 17.5897 49.6846 17.5911Z" fill="#D35454" stroke="#F3E9E9" stroke-width="0.1"/>
  <path d="M45.0967 17.5911C45.2158 17.5901 45.332 17.624 45.4307 17.6877L45.5225 17.761L46.835 19.0735C46.9172 19.159 46.9724 19.2661 46.9941 19.3811L47.0039 19.4993C47.0025 19.6582 46.9385 19.8097 46.8262 19.9221C46.7138 20.0345 46.5622 20.0984 46.4033 20.0999C46.2444 20.1012 46.0909 20.0404 45.9766 19.9299L44.665 18.6184C44.5549 18.5042 44.4938 18.3513 44.4951 18.1926C44.4965 18.0337 44.5604 17.8812 44.6729 17.7688C44.7853 17.6564 44.9377 17.5924 45.0967 17.5911Z" fill="#D35454" stroke="#F3E9E9" stroke-width="0.1"/>
  <path d="M48.3779 20.8723C48.4971 20.8714 48.6132 20.9053 48.7119 20.969L48.8037 21.0422L50.1162 22.3547C50.1985 22.4403 50.2536 22.5474 50.2754 22.6624L50.2852 22.7805C50.2837 22.9394 50.2198 23.091 50.1074 23.2034C49.995 23.3157 49.8435 23.3797 49.6846 23.3811C49.5256 23.3825 49.3722 23.3216 49.2578 23.2112L47.9463 21.8997C47.8362 21.7855 47.7751 21.6325 47.7764 21.4739C47.7777 21.3149 47.8417 21.1625 47.9541 21.05C48.0665 20.9376 48.219 20.8737 48.3779 20.8723Z" fill="#D35454" stroke="#F3E9E9" stroke-width="0.1"/>
  <path d="M46.4033 20.8723C46.5623 20.8737 46.7147 20.9376 46.8271 21.05C46.9394 21.1624 47.0025 21.315 47.0039 21.4739C47.0052 21.6327 46.9443 21.7854 46.834 21.8997L45.5225 23.2122C45.4663 23.2685 45.3987 23.3125 45.3252 23.343C45.2517 23.3734 45.1732 23.39 45.0938 23.3899C44.9739 23.3899 44.8565 23.354 44.7568 23.2874C44.6572 23.2207 44.5791 23.1257 44.5332 23.0149C44.4875 22.9043 44.4758 22.7826 44.499 22.6653C44.5224 22.5477 44.5803 22.4395 44.665 22.3547L45.9766 21.0413C46.0908 20.9312 46.2446 20.8709 46.4033 20.8723Z" fill="#D35454" stroke="#F3E9E9" stroke-width="0.1"/>
</svg>
