<svg xmlns="http://www.w3.org/2000/svg" width="60" height="60" viewBox="0 0 60 60" fill="none">
  <rect width="60" height="60" rx="5" fill="#DDFAF5"/>
  <path d="M14.1426 35.2599C13.762 35.2599 13.4531 34.951 13.4531 34.5704V15.2652C13.4531 14.1248 14.3812 13.1968 15.5215 13.1968H44.4794C45.6198 13.1968 46.5478 14.1248 46.5478 15.2652V19.402C46.5478 19.7826 46.2389 20.0915 45.8583 20.0915C45.4777 20.0915 45.1689 19.7826 45.1689 19.402V15.2652C45.1689 14.8846 44.86 14.5757 44.4794 14.5757H15.5215C15.141 14.5757 14.8321 14.8846 14.8321 15.2652V34.5704C14.8321 34.951 14.5232 35.2599 14.1426 35.2599Z" fill="#4AB9B4"/>
  <path d="M32.0688 38.0176H16.9004C16.5198 38.0176 16.2109 37.7087 16.2109 37.3281C16.2109 36.9476 16.5198 36.6387 16.9004 36.6387H32.0688C32.4494 36.6387 32.7583 36.9476 32.7583 37.3281C32.7583 37.7087 32.4494 38.0176 32.0688 38.0176Z" fill="#4AB9B4"/>
  <path d="M10.0052 44.9122C9.88519 44.9122 9.76247 44.8805 9.65077 44.8143C9.32396 44.6185 9.21916 44.1952 9.41497 43.8684L13.5518 36.9736C13.7476 36.6468 14.171 36.5407 14.4978 36.7378C14.8246 36.9337 14.9294 37.357 14.7336 37.6838L10.5967 44.5785C10.4671 44.7936 10.2382 44.9122 10.0052 44.9122Z" fill="#4AB9B4"/>
  <path d="M34.8269 47.67H12.7638C10.8636 47.67 9.31641 46.1229 9.31641 44.2227C9.31641 43.8421 9.62529 43.5332 10.0059 43.5332H32.069C32.4496 43.5332 32.7585 43.8421 32.7585 44.2227C32.7585 44.6033 32.4496 44.9121 32.069 44.9121H10.8126C11.098 45.7147 11.8647 46.2911 12.7638 46.2911H34.8269C35.2075 46.2911 35.5164 46.6 35.5164 46.9806C35.5164 47.3612 35.2075 47.67 34.8269 47.67Z" fill="#4AB9B4"/>
  <path d="M16.9004 42.1548C17.2812 42.1548 17.5899 41.8461 17.5899 41.4654C17.5899 41.0846 17.2812 40.7759 16.9004 40.7759C16.5196 40.7759 16.2109 41.0846 16.2109 41.4654C16.2109 41.8461 16.5196 42.1548 16.9004 42.1548Z" fill="#4AB9B4"/>
  <path d="M15.5215 40.7759C15.9023 40.7759 16.211 40.4672 16.211 40.0864C16.211 39.7057 15.9023 39.397 15.5215 39.397C15.1407 39.397 14.832 39.7057 14.832 40.0864C14.832 40.4672 15.1407 40.7759 15.5215 40.7759Z" fill="#4AB9B4"/>
  <path d="M19.6582 42.1548C20.039 42.1548 20.3477 41.8461 20.3477 41.4654C20.3477 41.0846 20.039 40.7759 19.6582 40.7759C19.2774 40.7759 18.9688 41.0846 18.9688 41.4654C18.9688 41.8461 19.2774 42.1548 19.6582 42.1548Z" fill="#4AB9B4"/>
  <path d="M33.4473 42.1548C33.8281 42.1548 34.1368 41.8461 34.1368 41.4654C34.1368 41.0846 33.8281 40.7759 33.4473 40.7759C33.0665 40.7759 32.7578 41.0846 32.7578 41.4654C32.7578 41.8461 33.0665 42.1548 33.4473 42.1548Z" fill="#4AB9B4"/>
  <path d="M30.6895 42.1548C31.0703 42.1548 31.3789 41.8461 31.3789 41.4654C31.3789 41.0846 31.0703 40.7759 30.6895 40.7759C30.3087 40.7759 30 41.0846 30 41.4654C30 41.8461 30.3087 42.1548 30.6895 42.1548Z" fill="#4AB9B4"/>
  <path d="M27.9317 42.1548C28.3124 42.1548 28.6211 41.8461 28.6211 41.4654C28.6211 41.0846 28.3124 40.7759 27.9317 40.7759C27.5509 40.7759 27.2422 41.0846 27.2422 41.4654C27.2422 41.8461 27.5509 42.1548 27.9317 42.1548Z" fill="#4AB9B4"/>
  <path d="M25.1738 42.1548C25.5546 42.1548 25.8633 41.8461 25.8633 41.4654C25.8633 41.0846 25.5546 40.7759 25.1738 40.7759C24.7931 40.7759 24.4844 41.0846 24.4844 41.4654C24.4844 41.8461 24.7931 42.1548 25.1738 42.1548Z" fill="#4AB9B4"/>
  <path d="M22.416 42.1548C22.7968 42.1548 23.1055 41.8461 23.1055 41.4654C23.1055 41.0846 22.7968 40.7759 22.416 40.7759C22.0352 40.7759 21.7266 41.0846 21.7266 41.4654C21.7266 41.8461 22.0352 42.1548 22.416 42.1548Z" fill="#4AB9B4"/>
  <path d="M34.8262 40.7759C35.207 40.7759 35.5157 40.4672 35.5157 40.0864C35.5157 39.7057 35.207 39.397 34.8262 39.397C34.4454 39.397 34.1367 39.7057 34.1367 40.0864C34.1367 40.4672 34.4454 40.7759 34.8262 40.7759Z" fill="#4AB9B4"/>
  <path d="M32.0684 40.7759C32.4492 40.7759 32.7579 40.4672 32.7579 40.0864C32.7579 39.7057 32.4492 39.397 32.0684 39.397C31.6876 39.397 31.3789 39.7057 31.3789 40.0864C31.3789 40.4672 31.6876 40.7759 32.0684 40.7759Z" fill="#4AB9B4"/>
  <path d="M29.3106 40.7759C29.6914 40.7759 30 40.4672 30 40.0864C30 39.7057 29.6914 39.397 29.3106 39.397C28.9298 39.397 28.6211 39.7057 28.6211 40.0864C28.6211 40.4672 28.9298 40.7759 29.3106 40.7759Z" fill="#4AB9B4"/>
  <path d="M26.5528 40.7759C26.9335 40.7759 27.2422 40.4672 27.2422 40.0864C27.2422 39.7057 26.9335 39.397 26.5528 39.397C26.172 39.397 25.8633 39.7057 25.8633 40.0864C25.8633 40.4672 26.172 40.7759 26.5528 40.7759Z" fill="#4AB9B4"/>
  <path d="M23.7949 40.7759C24.1757 40.7759 24.4844 40.4672 24.4844 40.0864C24.4844 39.7057 24.1757 39.397 23.7949 39.397C23.4142 39.397 23.1055 39.7057 23.1055 40.0864C23.1055 40.4672 23.4142 40.7759 23.7949 40.7759Z" fill="#4AB9B4"/>
  <path d="M21.0371 40.7759C21.4179 40.7759 21.7266 40.4672 21.7266 40.0864C21.7266 39.7057 21.4179 39.397 21.0371 39.397C20.6563 39.397 20.3477 39.7057 20.3477 40.0864C20.3477 40.4672 20.6563 40.7759 21.0371 40.7759Z" fill="#4AB9B4"/>
  <path d="M18.2793 40.7759C18.6601 40.7759 18.9688 40.4672 18.9688 40.0864C18.9688 39.7057 18.6601 39.397 18.2793 39.397C17.8985 39.397 17.5898 39.7057 17.5898 40.0864C17.5898 40.4672 17.8985 40.7759 18.2793 40.7759Z" fill="#4AB9B4"/>
  <path d="M48.6156 50.4281H36.2051C35.0647 50.4281 34.1367 49.5 34.1367 48.3596V23.5386C34.1367 22.3982 35.0647 21.4702 36.2051 21.4702H48.6156C49.756 21.4702 50.6841 22.3982 50.6841 23.5386V48.3596C50.6841 49.5 49.756 50.4281 48.6156 50.4281ZM36.2051 22.8492C35.8245 22.8492 35.5157 23.158 35.5157 23.5386V48.3596C35.5157 48.7402 35.8245 49.0491 36.2051 49.0491H48.6156C48.9962 49.0491 49.3051 48.7402 49.3051 48.3596V23.5386C49.3051 23.158 48.9962 22.8492 48.6156 22.8492H36.2051Z" fill="#4AB9B4"/>
  <path d="M41.7207 47.6704H43.0997C43.4803 47.6704 43.7891 47.3616 43.7891 46.981C43.7891 46.6004 43.4803 46.2915 43.0997 46.2915H41.7207C41.3401 46.2915 41.0312 46.6004 41.0312 46.981C41.0312 47.3616 41.3401 47.6704 41.7207 47.6704Z" fill="#4AB9B4"/>
  <path d="M40.3418 25.607H44.4787C44.8592 25.607 45.1681 25.2981 45.1681 24.9175C45.1681 24.5369 44.8592 24.228 44.4787 24.228H40.3418C39.9612 24.228 39.6523 24.5369 39.6523 24.9175C39.6523 25.2981 39.9612 25.607 40.3418 25.607Z" fill="#4AB9B4"/>
</svg>
