<svg xmlns="http://www.w3.org/2000/svg" width="60" height="60" viewBox="0 0 120 120" fill="none">
  <rect width="120" height="120" rx="10" fill="#FBE9D6"/>
  <g transform="translate(27 27) scale(2)">
    <g fill="#D8814C" stroke="#D8814C" stroke-width="0.2" stroke-linejoin="round" stroke-linecap="round" paint-order="stroke fill">
      <path d="M26.6964 14.3075L28.8067 14.1735C28.8102 14.1732 28.8141 14.1729 28.8179 14.1727C30.3218 14.0455 31.6717 13.2562 32.5217 12.0063L34.19 9.55389C35.6421 7.41885 36.2047 4.84011 35.7737 2.29295C35.689 1.79268 35.4336 1.33168 35.0549 0.995338C34.6759 0.658718 34.1887 0.459931 33.6828 0.435769C31.1064 0.312213 28.6195 1.18122 26.6783 2.88162L24.4482 4.83517C23.3118 5.83048 22.6914 7.26784 22.7456 8.77934C22.7459 8.78291 22.7459 8.78675 22.7462 8.79059L22.8665 10.9056C22.9133 11.7301 22.6116 12.5437 22.0403 13.1362L4.61785 31.0693C4.15145 31.5567 3.91057 32.2252 3.93989 32.952C3.97223 33.7521 4.33861 34.5379 4.92011 35.0544C5.44543 35.5209 6.1675 35.7867 6.8893 35.7867C6.96658 35.7867 7.04386 35.7836 7.12086 35.7773C7.84458 35.7194 8.47842 35.3998 8.90755 34.8743L24.5841 15.3981C25.104 14.7572 25.874 14.3597 26.6964 14.3075ZM23.7472 14.7193L8.07203 34.1939C7.83252 34.4871 7.46422 34.6678 7.03509 34.7021C6.52457 34.743 6.00116 34.5728 5.63451 34.2472C5.26785 33.9212 5.03657 33.421 5.01602 32.9084C4.99848 32.4776 5.13303 32.0896 5.39226 31.8189L22.8133 13.8871C23.5943 13.0774 24.0054 11.9684 23.9418 10.8444L23.8215 8.73486C23.7806 7.55174 24.2671 6.42684 25.1568 5.64734L27.3869 3.69379C29.1177 2.1779 31.3357 1.40389 33.6316 1.51317C33.893 1.5258 34.1445 1.62849 34.3405 1.80257C34.5364 1.97637 34.6682 2.21469 34.7121 2.47306C35.0963 4.74401 34.5948 7.04269 33.3003 8.946L31.6319 11.3987C30.9663 12.3773 29.9099 12.9959 28.7327 13.0972L26.6281 13.2306C25.5068 13.302 24.4572 13.844 23.7472 14.7193Z"/>
      <path d="M34.9212 30.933L23.2394 20.2723C23.0197 20.0716 22.6793 20.0875 22.4787 20.3077C22.2787 20.5279 22.2946 20.8692 22.5144 21.0699L34.1931 31.7281C34.4709 31.9854 34.6285 32.3646 34.637 32.7956C34.6471 33.3085 34.4463 33.8217 34.0996 34.169C33.7532 34.5161 33.2419 34.7179 32.7289 34.7074C32.2987 34.6989 31.9202 34.5411 31.6662 34.2657L21.2568 22.8151C21.0565 22.5946 20.7159 22.579 20.4961 22.7794C20.2763 22.9801 20.2604 23.3214 20.4608 23.5416L30.8726 34.9949C31.3302 35.4908 31.9819 35.7719 32.7078 35.7862C32.7267 35.7865 32.7453 35.7868 32.7643 35.7868C33.5444 35.7868 34.3246 35.4696 34.8609 34.932C35.4106 34.3813 35.7293 33.5748 35.7134 32.7745C35.6991 32.0472 35.4188 31.3942 34.9212 30.933Z"/>
      <path d="M6.49671 14.2047C7.38787 15.0273 8.54565 15.4962 9.75688 15.5253C9.76071 15.5256 9.76455 15.5256 9.76811 15.5256L11.8825 15.5322C12.7068 15.5347 13.4991 15.8853 14.0551 16.4924L14.9865 17.5168C15.0928 17.6338 15.2383 17.6931 15.3847 17.6931C15.514 17.6931 15.6439 17.6467 15.7469 17.5525C15.967 17.3518 15.9829 17.0105 15.7826 16.7903L14.8498 15.7645C14.0901 14.9348 13.0099 14.457 11.8861 14.4532L9.77743 14.4466C8.84051 14.4227 7.9447 14.0633 7.25058 13.4337L1.12294 6.13513C1.06046 6.06045 1.06512 5.95227 1.1339 5.88335C1.18104 5.83585 1.23639 5.82899 1.26517 5.82899C1.29394 5.82899 1.34929 5.83585 1.3967 5.88335L6.97435 11.4722C7.52571 12.0246 8.42289 12.0246 8.97424 11.4719L9.62973 10.8154V10.8151L10.7935 9.64905C10.7935 9.64905 10.7938 9.64905 10.7938 9.64878L10.7941 9.6485L11.4493 8.99201C12.0007 8.43958 12.0007 7.54064 11.4493 6.98821L5.87165 1.39966C5.7993 1.32718 5.7993 1.20884 5.87165 1.13635C5.94043 1.06743 6.0484 1.06277 6.12293 1.12537L13.4073 7.26525C14.0359 7.96046 14.3946 8.85829 14.4184 9.79677L14.4247 11.9098C14.4286 13.0356 14.9057 14.1179 15.7349 14.8807L16.7329 15.7914C16.953 15.9921 17.2933 15.9762 17.4936 15.756C17.6937 15.5355 17.6778 15.1945 17.458 14.9938L16.4616 14.0844C15.8541 13.5259 15.5044 12.7319 15.5017 11.9063L15.4951 9.78771C15.4951 9.78386 15.4951 9.78002 15.4948 9.77617C15.4658 8.56258 14.9977 7.40254 14.1767 6.50964C14.1614 6.49289 14.145 6.47697 14.1274 6.46214L6.81596 0.299742C6.31065 -0.126387 5.57734 -0.0945369 5.11039 0.373327C4.61795 0.866725 4.61795 1.66929 5.11039 2.16241L10.688 7.75124C10.8196 7.88303 10.8196 8.09747 10.688 8.22926L10.4132 8.50438L4.19676 2.27608C3.98658 2.06521 3.64568 2.06521 3.4355 2.27608C3.22532 2.48667 3.22532 2.82824 3.4355 3.03883L9.65192 9.2674L9.24909 9.67074L3.03267 3.44245C2.82249 3.23185 2.48159 3.23185 2.27141 3.44245C2.06095 3.65304 2.06095 3.9946 2.27141 4.20519L8.48756 10.4338L8.21298 10.7092C8.08144 10.8409 7.86742 10.8409 7.73589 10.7092L2.15796 5.1206C1.91955 4.88173 1.6025 4.74994 1.26517 4.74994C0.927831 4.74994 0.610776 4.88173 0.372368 5.1206C-0.0945828 5.58847 -0.126097 6.32321 0.298928 6.82979L6.44958 14.1553C6.4641 14.1728 6.48 14.1893 6.49671 14.2047Z"/>
    </g>
  </g>
</svg>
