<svg xmlns="http://www.w3.org/2000/svg" width="60" height="60" viewBox="0 0 60 60" fill="none">
  <rect width="60" height="60" rx="5" fill="#EAF5DB"/>
  <path d="M30.1286 15.1707C30.0277 14.7757 29.6262 14.5371 29.2306 14.638C27.6384 15.0446 26.314 16.0437 25.5014 17.4513C25.2975 17.8044 25.4185 18.2559 25.7716 18.4597C25.8879 18.5268 26.0148 18.5588 26.14 18.5588C26.3952 18.5588 26.6434 18.4263 26.78 18.1895C27.3921 17.1292 28.3922 16.3759 29.596 16.0686C29.991 15.9678 30.2294 15.5658 30.1286 15.1707Z" fill="#99CD52"/>
  <path d="M31.7412 14.5318C31.7302 14.5298 31.719 14.528 31.7072 14.5262C31.3047 14.4645 30.9306 14.7405 30.8681 15.1429C30.8058 15.5445 31.0822 15.921 31.4829 15.9855C31.5256 15.9929 31.568 15.9965 31.61 15.9965C31.9599 15.9965 32.2707 15.7466 32.3355 15.3902C32.4083 14.989 32.1423 14.6048 31.7412 14.5318Z" fill="#99CD52"/>
  <path d="M45.1337 33.4556C44.5902 33.3003 44.0025 33.1628 43.3794 33.0438C43.3442 33.0346 43.3083 33.0281 43.2719 33.0242C41.4557 32.6856 39.3468 32.5034 37.1481 32.5034C35.93 32.5034 34.7403 32.5601 33.6115 32.6673L38.1732 24.7664C39.3183 22.783 39.6204 20.4647 39.0238 18.2382C38.4272 16.0119 37.0063 14.1552 35.023 13.0102C30.9132 10.6375 25.6394 12.0505 23.2668 16.1601L17.7605 25.6971C17.76 25.6979 17.7594 25.6986 17.7589 25.6994C17.7585 25.7002 17.7581 25.701 17.7577 25.7018L12.2513 35.2391C11.1061 37.2225 10.8041 39.5409 11.4006 41.7673C11.9972 43.9936 13.4181 45.8504 15.4015 46.9953C16.7138 47.7529 18.1874 48.1425 19.6822 48.1425C20.3119 48.1425 20.9455 48.0733 21.5722 47.9334C23.2399 47.5611 24.7392 46.716 25.9017 45.5114C26.486 46.1773 27.5734 46.7401 29.1561 47.1922C31.3007 47.8049 34.1388 48.1424 37.1478 48.1424C40.1568 48.1424 42.9949 47.8049 45.1395 47.1922C47.6356 46.4791 48.9012 45.4915 48.9012 44.2569V36.3934C48.9013 36.3919 48.9015 36.3905 48.9015 36.3889C48.9016 35.1568 47.6339 34.1699 45.1337 33.4556ZM37.1482 33.9799C38.3103 33.9799 39.4425 34.033 40.5139 34.1336L31.1356 38.2728C30.5792 38.1648 30.0539 38.0414 29.5683 37.9027C27.3557 37.2705 26.8712 36.5956 26.8712 36.3889C26.8712 36.1821 27.3558 35.5072 29.5683 34.8749C31.5886 34.2978 34.2806 33.9799 37.1482 33.9799ZM24.5454 16.8984C26.511 13.4938 30.88 12.3233 34.2847 14.2889C35.9265 15.2367 37.1031 16.7751 37.5977 18.6204C38.0922 20.4658 37.8425 22.3863 36.8947 24.0282L31.775 32.8955C31.755 32.8986 31.7354 32.902 31.7154 32.9052L19.4068 25.7984L24.5454 16.8984ZM25.3947 36.3851C25.3947 36.3865 25.3945 36.3877 25.3945 36.3891V43.8346C23.2532 46.6702 19.2351 47.5039 16.1398 45.7167C14.4979 44.7688 13.3214 43.2304 12.8268 41.3851C12.3323 39.5397 12.5821 37.6192 13.5299 35.9774L18.6686 27.0769L29.5385 33.3531C29.4112 33.3864 29.2854 33.4204 29.1624 33.4555C26.665 34.1692 25.3974 35.1548 25.3947 36.3851ZM47.425 44.257C47.425 44.4647 46.9416 45.142 44.7342 45.7726C42.7178 46.3487 40.0237 46.666 37.148 46.666C34.2724 46.666 31.5782 46.3487 29.5618 45.7726C27.3544 45.142 26.871 44.4647 26.871 44.257V38.4049C27.4601 38.7481 28.2247 39.0544 29.1626 39.3224C29.7418 39.488 30.3725 39.6327 31.0414 39.7568C31.0738 39.765 31.1068 39.7712 31.1402 39.7748C32.93 40.0997 34.9959 40.2745 37.1481 40.2745C40.149 40.2745 42.985 39.9364 45.1337 39.3225C46.0714 39.0546 46.8358 38.7483 47.425 38.4051V44.257ZM47.425 36.3891V36.3911C47.422 36.6001 46.9337 37.2726 44.7281 37.9029C42.7078 38.48 40.0158 38.798 37.1481 38.798C36.036 38.798 34.9512 38.7497 33.9209 38.6575L43.2761 34.5284C43.7895 34.6309 44.2764 34.7462 44.7281 34.8752C46.9367 35.5062 47.4232 36.1799 47.4251 36.3879C47.4251 36.3883 47.425 36.3886 47.425 36.3891Z" fill="#99CD52"/>
</svg>
