<svg xmlns="http://www.w3.org/2000/svg" width="60" height="60" viewBox="0 0 60 60" fill="none">
  <rect width="60" height="60" rx="5" fill="#E0F1F8"/>
  <path d="M36.2354 10.6748C37.7597 10.6749 39.2449 11.1103 40.5294 11.9316L46.1993 15.5586C47.3334 16.284 47.6668 17.7975 46.9425 18.9326L44.6007 22.6006C44.2497 23.1501 43.705 23.5306 43.0684 23.6709C42.432 23.8113 41.7777 23.6951 41.2286 23.3438L39.0518 21.9512V25.8457H40.8507C41.9239 25.8457 42.797 26.7189 42.797 27.792V29.8701L42.8116 29.918C42.8245 29.9598 42.8433 30.0217 42.8673 30.0996C42.9153 30.256 42.9842 30.4801 43.0665 30.748C43.2313 31.2844 43.4513 31.9999 43.671 32.7148C44.0992 34.1085 44.5287 35.5061 44.5499 35.5752L45.7393 39.4463C45.8502 39.809 45.646 40.1923 45.2833 40.3037L45.2843 40.3047C44.9303 40.416 44.535 40.2162 44.4239 39.8496L43.3849 36.4668H41.1993C40.2368 36.4667 39.3031 36.1578 38.5274 35.6074C38.0804 36.1747 37.3877 36.542 36.6104 36.542H24.2999L21.8009 44.6768C21.6427 45.1928 21.9326 45.7418 22.4474 45.9004L28.963 47.9062C29.2124 47.9831 29.4765 47.9581 29.7071 47.8359C29.9379 47.7137 30.1077 47.5089 30.1847 47.2588L32.5938 39.416C32.7648 38.8595 33.2717 38.4847 33.8536 38.4844C34.4358 38.4844 34.9434 38.8593 35.1143 39.416L37.5235 47.2588C37.6005 47.5088 37.7703 47.7136 38.0011 47.8359C38.2317 47.958 38.4959 47.9828 38.7452 47.9062L45.2608 45.9004C45.7755 45.7417 46.0656 45.1927 45.9073 44.6768L45.1954 42.3594C45.084 41.9967 45.2878 41.6117 45.6505 41.5C46.0134 41.3883 46.3983 41.5921 46.5099 41.9551L47.2218 44.2725C47.6027 45.5129 46.9047 46.8332 45.6651 47.2148L39.1495 49.2207C38.5519 49.4048 37.9129 49.3459 37.3565 49.0508C36.8017 48.7565 36.3937 48.2627 36.2091 47.6621L33.8536 39.9951L31.4981 47.6621C31.3135 48.2626 30.9062 48.7565 30.3516 49.0508C29.7967 49.3447 29.159 49.4055 28.5587 49.2207L22.0431 47.2148C20.8036 46.8332 20.1057 45.5129 20.4864 44.2725L22.8614 36.542H19.3907C18.0447 36.5418 16.9497 35.4454 16.9493 34.0986V21.9512L14.7725 23.3438C14.2235 23.6948 13.5692 23.812 12.9327 23.6719C12.296 23.5315 11.7515 23.1503 11.4005 22.6006L9.05868 18.9326C8.33443 17.7976 8.66817 16.284 9.80184 15.5586L11.7384 14.3203L11.8624 14.2568C12.1608 14.1421 12.5085 14.2493 12.6876 14.5293C12.8919 14.849 12.7992 15.2739 12.4796 15.4785L10.5431 16.7168C10.0479 17.0338 9.9014 17.6961 10.2179 18.1924L12.5597 21.8604C12.7131 22.1008 12.9504 22.2667 13.2286 22.3281C13.5066 22.3893 13.7915 22.3387 14.0313 22.1855L17.2667 20.1162C17.4782 19.9812 17.7466 19.9723 17.9669 20.0928C18.1871 20.2134 18.3242 20.4443 18.3243 20.6953V34.0986C18.3247 34.6872 18.8034 35.1668 19.3907 35.167H36.6104C37.1979 35.167 37.6765 34.6873 37.6768 34.0986V20.6953C37.677 20.4445 37.8143 20.2134 38.0343 20.0928C38.2545 19.9723 38.5228 19.981 38.7345 20.1162L41.9698 22.1855C42.2097 22.3389 42.4946 22.3892 42.7725 22.3281C43.0506 22.2668 43.288 22.1006 43.4415 21.8604L45.7833 18.1934C46.1002 17.6969 45.9538 17.0339 45.4581 16.7168L39.7882 13.0898C38.7253 12.41 37.4967 12.0508 36.2354 12.0508H33.1729C32.8352 14.6073 30.6454 16.5879 28.0001 16.5879C25.355 16.5875 23.1659 14.6071 22.8282 12.0508H19.7657C18.5046 12.0509 17.2757 12.41 16.213 13.0898L14.6934 14.0625C14.3738 14.2666 13.9478 14.1732 13.7432 13.8535C13.5389 13.5339 13.6328 13.109 13.9522 12.9043L15.4718 11.9316C16.7562 11.1102 18.2416 10.6749 19.7657 10.6748H36.2354ZM39.0518 34.2734C39.6422 34.7951 40.4071 35.0916 41.1983 35.0918H42.962L41.6016 30.6631H39.0518V34.2734ZM32.378 19.2305C34.3064 19.2305 35.8751 20.8006 35.8751 22.7305C35.8748 24.0679 35.1178 25.2586 33.9659 25.8457C34.1701 26.4645 34.2833 27.1251 34.2833 27.8115C34.2832 29.4049 33.679 30.7067 32.5831 31.6064C31.4899 32.5037 29.919 32.9932 28.0001 32.9932C26.0811 32.9931 24.5102 32.5038 23.4171 31.6064C22.3212 30.7067 21.717 29.4049 21.7169 27.8115C21.7169 27.1252 21.8292 26.4644 22.0333 25.8457C20.8819 25.2585 20.1253 24.0676 20.1251 22.7305C20.1251 20.8007 21.6937 19.2305 23.6222 19.2305C25.1575 19.2305 26.4692 20.2145 26.9356 21.6152C27.2816 21.5556 27.637 21.5225 28.0001 21.5225C28.3629 21.5225 28.7179 21.5557 29.0636 21.6152C29.5299 20.2144 30.8426 19.2306 32.378 19.2305ZM28.0001 22.8975C25.294 22.8975 23.092 25.102 23.0919 27.8115C23.092 29.0558 23.5498 30.0101 24.4474 30.6631C25.2998 31.2831 26.5253 31.6181 28.0001 31.6182C29.4748 31.6182 30.7004 31.2831 31.5528 30.6631C32.4503 30.0101 32.9082 29.0558 32.9083 27.8115C32.9081 25.102 30.7062 22.8975 28.0001 22.8975ZM39.0518 29.2881H41.422V27.792C41.422 27.4772 41.1655 27.2207 40.8507 27.2207H39.0518V29.2881ZM28.2862 27.332C28.5356 27.0454 28.9705 27.0155 29.2569 27.2646C29.543 27.5139 29.5726 27.9481 29.3233 28.2344C28.9888 28.6187 28.5051 28.8398 27.9962 28.8398C27.4873 28.8398 27.0036 28.6187 26.669 28.2344C26.4199 27.948 26.4501 27.5139 26.7364 27.2646C27.0228 27.0155 27.4568 27.0456 27.7061 27.332C27.7796 27.4163 27.8855 27.4648 27.9962 27.4648C28.1069 27.4648 28.2127 27.4163 28.2862 27.332ZM24.9337 26.5225C25.3134 26.5225 25.6213 26.8302 25.6212 27.21V27.7998C25.6212 28.1796 25.3134 28.4873 24.9337 28.4873C24.5541 28.4872 24.2462 28.1795 24.2462 27.7998V27.21C24.2462 26.8302 24.5541 26.5225 24.9337 26.5225ZM31.0665 26.5225C31.4462 26.5225 31.754 26.8303 31.754 27.21V27.7998C31.754 28.1796 31.4462 28.4873 31.0665 28.4873C30.6869 28.4872 30.379 28.1795 30.379 27.7998V27.21C30.379 26.8302 30.6869 26.5225 31.0665 26.5225ZM23.6222 20.6055C22.4524 20.6055 21.5001 21.5587 21.5001 22.7305C21.5003 23.5222 21.9373 24.2287 22.6065 24.5938C23.2994 23.4346 24.3535 22.5171 25.6134 21.9971C25.315 21.1769 24.534 20.6055 23.6222 20.6055ZM32.378 20.6055C31.4661 20.6056 30.684 21.1767 30.3858 21.9971C31.646 22.5169 32.6996 23.4345 33.3927 24.5938C34.0624 24.2289 34.4999 23.5225 34.5001 22.7305C34.5001 21.5587 33.5478 20.6055 32.378 20.6055ZM24.2188 12.0508C24.5437 13.8459 26.1154 15.2125 28.0001 15.2129C29.8851 15.2129 31.4574 13.8462 31.7823 12.0508H24.2188Z" fill="#559CCF"/>
</svg>
