<svg xmlns="http://www.w3.org/2000/svg" width="60" height="60" viewBox="0 0 60 60" fill="none">
  <rect width="60" height="60" rx="5" fill="#FDECEA"/>
  <mask id="mask_lingerie" style="mask-type:luminance" maskUnits="userSpaceOnUse" x="9" y="10" width="40" height="40">
    <path d="M10.1992 11.2001H47.7992V48.8H10.1992V11.2001Z" fill="white" stroke="white" stroke-width="0.47"/>
  </mask>
  <g mask="url(#mask_lingerie)">
    <path d="M25.8613 44.2306C32.6944 44.9882 39.5271 44.8875 46.3596 43.9287L46.685 43.8824L46.7087 43.8785C46.9509 43.8328 47.1344 43.6309 47.1552 43.3833C47.7334 36.4868 47.9227 29.5902 47.7246 22.6936C47.7189 22.497 47.6089 22.3184 47.4359 22.2249C46.9018 21.9363 46.3986 21.5439 45.936 21.0427C45.7297 20.8191 45.3812 20.8051 45.1577 21.0114C44.9342 21.2177 44.9202 21.5662 45.1265 21.7897C45.587 22.2887 46.0908 22.7043 46.632 23.0332C46.8107 29.6399 46.6316 36.2467 46.0935 42.8535C39.3892 43.7849 32.6864 43.8791 25.9826 43.1358C25.6803 43.1023 25.408 43.3202 25.3745 43.6225C25.341 43.9248 25.5589 44.1971 25.8613 44.2306Z" fill="#E4A79E" stroke="#E4A79E" stroke-width="0.47" stroke-miterlimit="10" stroke-linecap="round" stroke-linejoin="round"/>
    <path d="M22.6991 34.9589C23.0031 34.9482 23.2408 34.693 23.2301 34.3891C23.0968 30.6039 23.0815 26.8187 23.1842 23.0335C25.7687 21.4633 27.4718 17.9599 27.82 12.6493C28.5873 12.5818 29.3547 12.5253 30.122 12.4797C30.1377 14.5406 30.5864 16.4098 31.3376 17.8193C32.1519 19.3472 33.3931 20.4459 34.906 20.4509C34.9072 20.4509 34.9084 20.4509 34.9096 20.4509C36.4227 20.4459 37.6641 19.3473 38.4786 17.8193C39.2298 16.4099 39.6786 14.5406 39.6943 12.4797C40.4615 12.5253 41.229 12.5818 41.9962 12.6493C42.1946 15.6734 42.8292 18.0968 43.8089 19.9166C43.9531 20.1845 44.2871 20.2847 44.5549 20.1406C44.8227 19.9964 44.923 19.6623 44.7788 19.3945C43.8488 17.6668 43.2242 15.2576 43.069 12.1165C43.0555 11.8429 42.843 11.6209 42.5703 11.5953C41.4355 11.4888 40.2999 11.406 39.165 11.3469C39.011 11.3389 38.8607 11.3957 38.7506 11.5037C38.6405 11.6117 38.5807 11.7609 38.5858 11.915C38.6563 14.0571 38.2231 15.9566 37.5065 17.3011C36.781 18.662 35.8359 19.3454 34.9078 19.3493C33.9801 19.3454 33.0351 18.6621 32.3098 17.3012C31.5932 15.9567 31.1599 14.0571 31.2305 11.915C31.2355 11.7609 31.1758 11.6117 31.0657 11.5037C30.9556 11.3957 30.8053 11.3389 30.6513 11.3469C29.5165 11.406 28.3808 11.4888 27.246 11.5953C26.9733 11.6209 26.7608 11.843 26.7473 12.1165C26.4695 17.749 24.6906 20.9752 22.3801 22.2254C22.2073 22.3189 22.0974 22.4975 22.0917 22.6939C21.979 26.6052 21.9915 30.5165 22.1293 34.4278C22.14 34.7318 22.3951 34.9696 22.6991 34.9589Z" fill="#E4A79E" stroke="#E4A79E" stroke-width="0.47" stroke-miterlimit="10" stroke-linecap="round" stroke-linejoin="round"/>
    <path d="M21.2187 48.6478C22.1521 48.6562 23.086 48.6573 24.0194 48.651L24.4195 48.6478L24.4472 48.6469C24.7322 48.6302 24.9593 48.3968 24.9652 48.1083C25.0559 43.6768 29.4086 39.9212 34.8756 40.046C35.0289 40.0495 35.1766 39.989 35.2834 39.879C35.3902 39.769 35.4462 39.6195 35.4382 39.4664C35.3538 37.8636 35.1553 36.2613 34.8435 34.66C34.7956 34.4138 34.5874 34.2311 34.3371 34.2155C26.6584 33.7382 18.9797 33.7382 11.3011 34.2155C11.0508 34.2311 10.8426 34.4138 10.7947 34.66C10.4829 36.2613 10.2843 37.8636 10.2 39.4664C10.1919 39.6195 10.2481 39.769 10.3548 39.879C10.4616 39.989 10.6094 40.0495 10.7626 40.046C12.2259 40.0124 13.6161 40.2598 14.8673 40.7273C15.1522 40.8338 15.4695 40.6891 15.576 40.4042C15.6825 40.1192 15.5378 39.8019 15.2529 39.6954C14.0435 39.2435 12.7213 38.9796 11.3356 38.9453C11.4213 37.7269 11.5753 36.5082 11.7971 35.289C19.1451 34.8493 26.493 34.8493 33.841 35.289C34.0629 36.5083 34.2168 37.7272 34.3025 38.9456C28.8511 39.083 24.3038 42.793 23.8924 47.5501C23.1769 47.5545 22.461 47.5545 21.7455 47.5501C21.5001 44.7304 19.7921 42.2684 17.3206 40.7145C17.0631 40.5526 16.7231 40.6301 16.5612 40.8876C16.3993 41.1451 16.4768 41.4851 16.7343 41.647C19.1041 43.1371 20.6194 45.4991 20.673 48.1084L20.6742 48.1362C20.6943 48.4209 20.9302 48.6452 21.2187 48.6478Z" fill="#E4A79E" stroke="#E4A79E" stroke-width="0.47" stroke-miterlimit="10" stroke-linecap="round" stroke-linejoin="round"/>
  </g>
</svg>
