<svg xmlns="http://www.w3.org/2000/svg" width="60" height="60" viewBox="0 0 60 60" fill="none">
  <rect width="60" height="60" rx="5" fill="#FBF3D8"/>
  <path d="M47.5025 29.0076C47.3278 28.9351 47.1266 28.9748 46.9925 29.109L39.7425 36.359V23.6664L39.9897 23.8309C40.2602 24.0118 40.5667 24.0976 40.87 24.0976C41.3846 24.0976 41.8907 23.8488 42.1971 23.3895C42.4326 23.0371 42.516 22.6121 42.4326 22.1942C42.3492 21.7763 42.109 21.4168 41.7558 21.1813L27.1894 11.4712C26.6623 11.1203 26.0081 11.1203 25.481 11.4712L10.9154 21.1821C10.5629 21.4176 10.322 21.777 10.2386 22.195C10.1551 22.6129 10.2386 23.0371 10.474 23.3903C10.9614 24.1202 11.9516 24.3182 12.6815 23.8317L12.9287 23.6671V42.0691C12.9287 42.9073 13.6109 43.5896 14.4492 43.5896H32.5119L28.1079 47.9936C27.9738 48.1277 27.934 48.3288 28.0066 48.5035C28.0791 48.6782 28.2498 48.792 28.4385 48.792H47.3231C47.5812 48.792 47.791 48.5823 47.791 48.3242V29.4396C47.791 29.2509 47.6771 29.0801 47.5025 29.0076ZM12.1622 23.0527C11.8612 23.2531 11.4526 23.172 11.2522 22.871C11.0518 22.57 11.1329 22.1614 11.4339 21.9611L25.9995 12.2501C26.2093 12.1106 26.4603 12.1106 26.6701 12.2501L41.2357 21.9611C41.5367 22.1614 41.6185 22.57 41.4174 22.871C41.217 23.172 40.8084 23.2539 40.5074 23.0527L26.5952 13.7769C26.5165 13.7246 26.426 13.6981 26.3356 13.6981C26.2451 13.6981 26.1547 13.7246 26.0759 13.7769L12.1622 23.0527ZM14.4492 42.6539C14.1264 42.6539 13.8644 42.3911 13.8644 42.0691V23.0433L26.3356 14.7282L38.8068 23.0426V37.2947L33.4484 42.6531H14.4492V42.6539ZM46.8553 47.8563H45.9828V46.9744C45.9828 46.7163 45.773 46.5066 45.5149 46.5066C45.2568 46.5066 45.0471 46.7163 45.0471 46.9744V47.8563H43.6482V47.3136C43.6482 47.0555 43.4385 46.8458 43.1804 46.8458C42.9223 46.8458 42.7125 47.0555 42.7125 47.3136V47.8563H41.2988V46.9744C41.2988 46.7163 41.0891 46.5066 40.831 46.5066C40.5729 46.5066 40.3631 46.7163 40.3631 46.9744V47.8563H38.9565V47.3136C38.9565 47.0555 38.7467 46.8458 38.4886 46.8458C38.2306 46.8458 38.0208 47.0555 38.0208 47.3136V47.8563H36.6141V46.9744C36.6141 46.7163 36.4044 46.5066 36.1463 46.5066C35.8882 46.5066 35.6785 46.7163 35.6785 46.9744V47.8563H34.2648V47.3136C34.2648 47.0555 34.055 46.8458 33.7969 46.8458C33.5388 46.8458 33.3291 47.0555 33.3291 47.3136V47.8563H31.9302V46.9744C31.9302 46.7163 31.7205 46.5066 31.4624 46.5066C31.2043 46.5066 30.9945 46.7163 30.9945 46.9744V47.8563H29.5684L46.8553 30.5694V47.8563ZM36.0215 45.6512H44.1823C44.4404 45.6512 44.6502 45.4415 44.6502 45.1834V37.0226C44.6502 36.8331 44.5363 36.6631 44.3617 36.5906C44.187 36.5181 43.9858 36.5578 43.8517 36.692L35.6909 44.8528C35.5568 44.9869 35.517 45.188 35.5896 45.3627C35.6621 45.5374 35.8321 45.6512 36.0215 45.6512ZM43.7145 38.1516V44.7155H37.1506L43.7145 38.1516ZM21.2953 30.4174H19.2532V28.2325H20.7526C20.9086 28.2325 21.0551 28.1546 21.1417 28.0243C21.2283 27.8941 21.2446 27.7296 21.1846 27.5853L20.0703 24.9061C19.9978 24.7315 19.8271 24.6176 19.6384 24.6176H17.9315C17.7428 24.6176 17.572 24.7315 17.4995 24.9061L16.3853 27.5853C16.3252 27.7296 16.3416 27.8949 16.4282 28.0243C16.5147 28.1546 16.6613 28.2325 16.8172 28.2325H18.3167V30.4174H16.2753C16.0172 30.4174 15.8075 30.6271 15.8075 30.8852V35.4085C15.8075 35.6666 16.0172 35.8764 16.2753 35.8764H21.2953C21.5534 35.8764 21.7632 35.6666 21.7632 35.4085V30.8852C21.7632 30.6271 21.5534 30.4174 21.2953 30.4174ZM18.2442 25.5533H19.3265L20.0516 27.2968H17.519L18.2442 25.5533ZM20.8275 34.9407H16.7432V31.3531H20.8275V34.9407ZM35.1272 29.2072C35.0609 29.2072 34.9954 29.2111 34.9307 29.2189C33.8975 27.3265 31.8928 26.1225 29.7189 26.1225C27.5457 26.1225 25.5402 27.3265 24.5071 29.2189C24.4424 29.2119 24.3769 29.2072 24.3106 29.2072C23.3531 29.2072 22.5741 29.9862 22.5741 30.9437V34.1913C22.5741 35.1489 23.3531 35.9278 24.3106 35.9278C24.4938 35.9278 24.6708 35.899 24.8361 35.8459H34.6008C34.7669 35.899 34.9432 35.9278 35.1264 35.9278C36.0839 35.9278 36.8629 35.1489 36.8629 34.1913V30.9437C36.8637 29.9862 36.0847 29.2072 35.1272 29.2072ZM26.0471 34.1913V31.9706H33.3907V34.1913C33.3907 34.4479 33.4468 34.6911 33.5474 34.9103H25.8911C25.9909 34.6911 26.0471 34.4479 26.0471 34.1913ZM29.7189 27.0582C31.5154 27.0582 33.1747 28.0345 34.0581 29.5768C33.6519 29.8949 33.3907 30.3893 33.3907 30.9437V31.0349H26.0471V30.9437C26.0471 30.3893 25.7851 29.8949 25.3796 29.5768C26.2631 28.0345 27.9223 27.0582 29.7189 27.0582ZM23.5098 34.1913V30.9437C23.5098 30.5024 23.8692 30.1429 24.3106 30.1429C24.7519 30.1429 25.1114 30.5024 25.1114 30.9437V34.1913C25.1114 34.6327 24.7519 34.9921 24.3106 34.9921C23.8692 34.9921 23.5098 34.6327 23.5098 34.1913ZM35.928 34.1913C35.928 34.6327 35.5685 34.9921 35.1272 34.9921C34.6858 34.9921 34.3264 34.6327 34.3264 34.1913V30.9437C34.3264 30.5024 34.6858 30.1429 35.1272 30.1429C35.5685 30.1429 35.928 30.5024 35.928 30.9437V34.1913ZM47.7902 15.3597C47.7902 15.3192 47.7855 15.2787 47.7746 15.2389L46.7867 11.5554C46.7321 11.3511 46.5465 11.2084 46.3352 11.2084C46.1239 11.2084 45.9383 11.3503 45.8837 11.5554L44.8958 15.2389C44.8849 15.2787 44.8802 15.3192 44.8802 15.3597H44.8794V26.7923C44.8794 27.222 45.2295 27.5721 45.6592 27.5721H47.0112C47.4409 27.5721 47.791 27.222 47.791 26.7923L47.7902 15.3597ZM46.3352 13.4829L46.7134 14.8919H45.9578L46.3352 13.4829ZM46.8553 15.8276V23.6664H45.8159V15.8276H46.8553ZM45.8159 26.6364V24.602H46.8553V26.6364H45.8159Z" fill="#CEB04A" stroke="#CEB04A" stroke-width="0.246"/>
</svg>