<svg xmlns="http://www.w3.org/2000/svg" width="60" height="60" viewBox="0 0 60 60" fill="none">
  <rect width="60" height="60" rx="5" fill="#FDE5E3"/>
  <path d="M23.8594 31.6444C23.8594 38.0399 29.0624 43.243 35.4579 43.243C50.8237 42.6599 50.8197 20.6267 35.4577 20.0459C29.0624 20.0458 23.8594 25.249 23.8594 31.6444ZM45.8995 31.6444C45.8995 37.402 41.2155 42.0861 35.4579 42.0861C21.6247 41.5611 21.6284 21.7256 35.4581 21.2028C41.2154 21.2028 45.8995 25.8869 45.8995 31.6444Z" fill="#E85B56"/>
  <path d="M50.1835 44.3582H42.7015C51.0303 39.8291 52.6535 27.6377 45.6218 21.1238C45.0895 20.5943 44.2706 21.4423 44.8179 21.9558C52.0218 28.6586 49.2452 41.2626 39.9226 44.3582H30.9927C28.3652 43.435 26.0487 41.6797 24.4373 39.394V38.3838C24.4373 37.4318 23.7808 36.6304 22.8968 36.4085V26.7654C25.8545 18.876 35.8133 15.6688 42.818 20.3593C43.4404 20.7794 44.0851 19.7922 43.451 19.3909C38.5896 16.14 31.8055 16.2485 27.0574 19.6669C25.3555 20.8626 23.9455 22.3829 22.8968 24.1385V19.958C22.8968 19.3052 22.4086 18.7642 21.7781 18.681V14.4074C21.7781 13.4439 21.2593 12.546 20.4242 12.064L15.8266 9.41098C15.0104 8.90195 13.861 9.56454 13.8937 10.5262V18.6811C13.2632 18.7643 12.775 19.3052 12.775 19.9581V36.4085C11.891 36.6305 11.2345 37.4319 11.2345 38.3839V39.5185C11.2227 40.3193 12.4803 40.3189 12.4685 39.5185V38.3839C12.4685 37.9415 12.8284 37.5815 13.2708 37.5815H22.401C22.8434 37.5815 23.2033 37.9414 23.2033 38.3839V44.3583H20.7319C20.4125 44.3583 20.1535 44.6172 20.1535 44.9367C20.1535 45.9395 20.545 46.8524 21.1831 47.5309H13.2708C12.8284 47.5309 12.4685 47.171 12.4685 46.7286V42.2276C12.4802 41.4269 11.2226 41.4272 11.2345 42.2276V46.7286C11.2345 47.8514 12.148 48.7649 13.2708 48.7649L46.9723 48.7264C49.0619 48.7264 50.762 47.0263 50.762 44.9367C50.762 44.6172 50.503 44.3582 50.1835 44.3582ZM13.9319 36.3475V19.9581C13.9319 19.8857 13.9908 19.8269 14.0631 19.8269H21.6086C21.681 19.8269 21.7398 19.8857 21.7398 19.9581V26.6247C21.7383 26.6488 21.7383 26.6728 21.7398 26.6966V36.3475H13.9319ZM15.0506 10.5262C15.0615 10.4144 15.1458 10.3661 15.2484 10.413L19.8459 13.0661C20.3241 13.3421 20.6211 13.856 20.6211 14.4075V18.67H15.0506V10.5262ZM24.4373 41.262C25.5184 42.4966 26.8032 43.546 28.2237 44.3582H24.4373V41.262ZM46.9723 47.5695H23.9431C22.6901 47.5695 21.6387 46.6895 21.3744 45.5151H49.5411C49.2768 46.6895 48.2253 47.5695 46.9723 47.5695Z" fill="#E85B56"/>
  <path d="M15.8987 23.9287C15.5793 23.9287 15.3203 24.1877 15.3203 24.5071V34.2955C15.344 35.0603 16.4538 35.0597 16.4772 34.2955V24.5071C16.4772 24.1877 16.2182 23.9287 15.8987 23.9287Z" fill="#E85B56"/>
  <path d="M28.1783 29.7039C28.3362 29.7039 28.4941 29.6437 28.6146 29.5232L33.337 24.8009C33.5779 24.5599 33.5779 24.1692 33.337 23.9283C33.0961 23.6873 32.7054 23.6873 32.4644 23.9283L27.742 28.6506C27.3486 29.0173 27.6504 29.7226 28.1783 29.7039Z" fill="#E85B56"/>
  <path d="M27.7432 34.1146C27.9841 34.3556 28.3749 34.3556 28.6158 34.1146L37.9296 24.8009C38.1706 24.5599 38.1706 24.1692 37.9296 23.9283C37.6887 23.6873 37.2981 23.6873 37.057 23.9283L27.7432 33.242C27.5023 33.483 27.5023 33.8736 27.7432 34.1146Z" fill="#E85B56"/>
</svg>
