<svg xmlns="http://www.w3.org/2000/svg" width="60" height="60" viewBox="0 0 60 60" fill="none">
  <rect width="60" height="60" rx="5" fill="#E8EFFB"/>
  <path d="M23.4526 43.0264C22.0787 43.0264 20.9609 44.1441 20.9609 45.5181C20.9609 46.892 22.0787 48.0098 23.4526 48.0098C24.8266 48.0098 25.9443 46.892 25.9443 45.5181C25.9443 44.1441 24.8266 43.0264 23.4526 43.0264ZM23.4526 47.0131C22.6283 47.0131 21.9576 46.3424 21.9576 45.5181C21.9576 44.6937 22.6283 44.023 23.4526 44.023C24.277 44.023 24.9477 44.6937 24.9477 45.5181C24.9477 46.3424 24.277 47.0131 23.4526 47.0131Z" fill="#6E90CA"/>
  <path d="M23.4515 46.0167C23.7267 46.0167 23.9498 45.7936 23.9498 45.5184C23.9498 45.2431 23.7267 45.02 23.4515 45.02C23.1762 45.02 22.9531 45.2431 22.9531 45.5184C22.9531 45.7936 23.1762 46.0167 23.4515 46.0167Z" fill="#6E90CA"/>
  <path d="M40.5257 46.0167C40.8009 46.0167 41.024 45.7936 41.024 45.5184C41.024 45.2431 40.8009 45.02 40.5257 45.02C40.2505 45.02 40.0273 45.2431 40.0273 45.5184C40.0273 45.7936 40.2505 46.0167 40.5257 46.0167Z" fill="#6E90CA"/>
  <path d="M40.5269 43.0264C39.1529 43.0264 38.0352 44.1441 38.0352 45.5181C38.0352 46.892 39.1529 48.0098 40.5269 48.0098C41.9008 48.0098 43.0186 46.892 43.0186 45.5181C43.0186 44.1441 41.9008 43.0264 40.5269 43.0264ZM40.5269 47.0131C39.7025 47.0131 39.0318 46.3424 39.0318 45.5181C39.0318 44.6937 39.7025 44.023 40.5269 44.023C41.3512 44.023 42.0219 44.6937 42.0219 45.5181C42.0219 46.3424 41.3512 47.0131 40.5269 47.0131Z" fill="#6E90CA"/>
  <path d="M20.2212 38.1068L23.8486 36.0501H31.9922C33.1955 36.0501 34.2023 35.1927 34.4339 34.0567H39.6239C41.2188 34.0567 42.6085 32.9776 43.0035 31.4326L45.9966 19.7284C46.0347 19.5792 46.0018 19.4209 45.9074 19.2993C45.813 19.1777 45.6677 19.1065 45.5139 19.1065H21.0462L20.792 18.1128C20.1721 15.6855 17.9879 13.9902 15.4806 13.9902H13.4872C12.6629 13.9902 11.9922 14.6609 11.9922 15.4853C11.9922 16.3096 12.6629 16.9803 13.4872 16.9803H15.4806C16.6206 16.9803 17.6134 17.7504 17.8951 18.8532L21.7226 33.8183L18.7472 35.5054C17.6545 36.124 16.9756 37.2875 16.9756 38.5418C16.9756 40.4652 18.5405 42.0302 20.464 42.0302H42.5238C43.3481 42.0302 44.0188 41.3595 44.0188 40.5351C44.0188 39.7108 43.3481 39.0401 42.5238 39.0401H20.464C20.1891 39.0401 19.9656 38.8166 19.9656 38.5418C19.9656 38.3627 20.0634 38.1961 20.2212 38.1068ZM38.6928 28.4089H35.6304L35.8172 24.7544H39.2534L38.6928 28.4089ZM40.2617 24.7544H43.6826L42.7481 28.4089H39.7011L40.2617 24.7544ZM38.5398 29.4055L37.9792 33.06H35.3926L35.5794 29.4055H38.5398ZM34.6324 28.4089H31.5648L31.3778 24.7544H34.8192L34.6324 28.4089ZM35.8682 23.7577L36.055 20.1032H39.967L39.4063 23.7577H35.8682ZM34.8702 23.7577H31.3268L31.1398 20.1032H35.057L34.8702 23.7577ZM30.3288 23.7577H28.3563C28.081 23.7577 27.8579 23.9808 27.8579 24.256C27.8579 24.5313 28.081 24.7544 28.3563 24.7544H30.3798L30.5668 28.4089H27.5044L26.2298 20.1032H30.1418L30.3288 23.7577ZM26.4961 28.4089H23.4253L22.4906 24.7544H25.9353L26.4961 28.4089ZM26.6491 29.4055L27.21 33.06H24.6149L23.6803 29.4055H26.6491ZM28.2183 33.06L27.6574 29.4055H30.6178L30.8048 33.06H28.2183ZM31.8028 33.06L31.6158 29.4055H34.5814L34.3946 33.06H31.8028ZM42.038 31.1857C41.7558 32.2892 40.7631 33.06 39.6239 33.06H38.9875L39.5481 29.4055H42.4931L42.038 31.1857ZM43.9375 23.7577H40.4147L40.9754 20.1032H44.8721L43.9375 23.7577ZM25.2215 20.1032L25.7824 23.7577H22.2358L21.3011 20.1032H25.2215ZM15.4806 15.9836H13.4872C13.2124 15.9836 12.9889 15.7601 12.9889 15.4853C12.9889 15.2104 13.2124 14.9869 13.4872 14.9869H15.4806C16.5281 14.9869 17.5061 15.3491 18.2804 15.9672L17.5699 16.6778C16.9824 16.2388 16.256 15.9836 15.4806 15.9836ZM20.464 40.0368H42.5238C42.7986 40.0368 43.0222 40.2603 43.0222 40.5351C43.0222 40.81 42.7986 41.0335 42.5238 41.0335H20.464C19.09 41.0335 17.9723 39.9157 17.9723 38.5418C17.9723 37.6459 18.4574 36.8147 19.2385 36.3725L22.5456 34.4974C22.7412 34.3864 22.8383 34.1582 22.7825 33.9404L18.8606 18.6064C18.7448 18.1528 18.5426 17.7399 18.2751 17.3823L18.9858 16.6716C19.3736 17.1568 19.665 17.7277 19.8264 18.3596L23.7452 33.6819C23.8016 33.9024 24.0003 34.0568 24.228 34.0568H33.4019C33.1962 34.6369 32.6419 35.0535 31.9922 35.0535H23.7171C23.6309 35.0535 23.5463 35.0758 23.4713 35.1183L19.7299 37.2397C19.2606 37.5052 18.9689 38.0042 18.9689 38.5418C18.9689 39.3661 19.6396 40.0368 20.464 40.0368Z" fill="#6E90CA"/>
</svg>
