<svg xmlns="http://www.w3.org/2000/svg" width="60" height="60" viewBox="0 0 60 60" fill="none">
  <rect width="60" height="60" rx="5" fill="#EAE2F3"/>
  <path d="M11.8747 18.5083C11.5298 18.7432 11.3236 19.1337 11.3242 19.551C11.3306 24.5989 11.9064 36.3372 17.0315 36.3372H29.9158C30.2656 36.3372 30.5492 36.0536 30.5492 35.7038C30.5492 35.3539 30.2656 35.0703 29.9158 35.0703H17.0315C13.7737 35.0703 12.6038 26.7089 12.5879 19.558C15.6497 20.6726 18.8499 21.3621 22.0991 21.6071V26.8356C22.0991 28.2349 23.2335 29.3693 24.6328 29.3693H27.1666C28.566 29.3693 29.7004 28.2349 29.7004 26.8356V21.6071C32.9506 21.3694 36.1513 20.6757 39.2084 19.5466C39.202 20.5088 39.1805 21.9796 39.0703 23.6392C39.0553 23.8655 39.1623 24.0826 39.3508 24.2087C39.5393 24.3348 39.7808 24.3507 39.9842 24.2505C40.1877 24.1503 40.3222 23.9491 40.3372 23.7228C40.4493 22.0303 40.4714 20.5335 40.4778 19.551C40.4781 19.133 40.2713 18.742 39.9255 18.5072C39.5798 18.2723 39.1401 18.2241 38.7517 18.3785C37.3082 18.9272 35.8223 19.3566 34.3087 19.6625C33.121 14.5329 29.7302 10.9995 25.8997 10.9995C22.0693 10.9995 18.6785 14.5329 17.4933 19.6625C15.9802 19.3565 14.4947 18.9273 13.0516 18.3791C12.6621 18.2249 12.2215 18.2733 11.8747 18.5083ZM25.8997 12.2664C27.2895 12.2664 28.9789 15.2803 29.5237 20.3517C28.3999 20.4454 27.192 20.5011 25.8997 20.5011C24.6075 20.5011 23.3995 20.4454 22.2758 20.3517C22.8206 15.2803 24.51 12.2664 25.8997 12.2664ZM28.4335 26.8356C28.4335 27.5353 27.8663 28.1025 27.1666 28.1025H24.6328C23.9332 28.1025 23.366 27.5353 23.366 26.8356V21.6977C24.1736 21.7427 25.018 21.768 25.8997 21.768C26.7815 21.768 27.6259 21.7427 28.4335 21.6977V26.8356ZM33.0627 19.8994C32.357 20.0223 31.5982 20.1338 30.7855 20.2262C30.4935 17.5316 29.8188 14.8977 28.7838 13.1361C30.75 14.3568 32.3349 16.7942 33.0627 19.8994ZM23.0157 13.1361C21.9806 14.8977 21.3054 17.5316 21.014 20.2262C20.2013 20.1338 19.4424 20.0223 18.7336 19.8994C19.4646 16.7942 21.0495 14.3568 23.0157 13.1361Z" fill="#9076AD"/>
  <path d="M18.9278 32.5399H17.251C16.8834 32.0212 16.6122 31.4406 16.4504 30.8258C16.3875 30.6019 16.2071 30.4305 15.9802 30.3791C15.7534 30.3278 15.5167 30.405 15.3636 30.58C15.2105 30.7551 15.1657 31 15.2468 31.2179C15.9556 33.3995 16.5904 33.6713 16.7981 33.7606C16.8771 33.794 16.962 33.8113 17.0477 33.8113H18.929C19.2789 33.8113 19.5625 33.5277 19.5625 33.1778C19.5625 32.828 19.2789 32.5444 18.929 32.5444L18.9278 32.5399Z" fill="#9076AD"/>
  <path d="M24.6328 25.5683C24.6328 25.9181 24.9164 26.2017 25.2663 26.2017H26.5331C26.883 26.2017 27.1666 25.9181 27.1666 25.5683C27.1666 25.2184 26.883 24.9348 26.5331 24.9348H25.2663C24.9164 24.9348 24.6328 25.2184 24.6328 25.5683Z" fill="#9076AD"/>
  <path d="M43.6277 22.6421C37.9629 27.5044 33.9988 33.17 31.1039 37.3082C30.6523 37.9543 30.2241 38.5662 29.8168 39.1363C27.0638 42.9908 23.2587 40.3684 23.1023 40.2563C22.7792 40.0244 22.2224 39.8863 20.5501 40.6211C19.4022 41.1333 18.3591 41.8536 17.4735 42.7457C16.5899 43.623 15.1507 45.3181 15.4402 46.8086C15.6071 47.5546 16.1531 48.1584 16.8787 48.3992C18.1434 48.859 19.4863 49.0652 20.8308 49.006H29.699C32.8206 49.006 33.7422 47.3895 35.4158 44.4554C36.0296 43.3785 36.7929 42.0413 37.8273 40.4894C38.7318 39.1571 39.8097 37.9512 41.0325 36.9035C41.9094 38.6616 42.3665 40.5992 42.3678 42.5639V47.7391C42.3678 48.4388 42.935 49.006 43.6347 49.006H45.535C46.2347 49.006 46.8019 48.4388 46.8019 47.7391V40.6572C46.8015 39.5283 46.9506 38.4043 47.2453 37.3146C47.8116 35.2305 48.6877 32.057 48.6965 31.9601C49.152 26.9495 47.3777 24.0908 46.2793 22.8328C45.5957 22.0561 44.4154 21.9712 43.6277 22.6421ZM46.0259 36.9826C45.7009 38.1805 45.5358 39.4161 45.535 40.6572V47.7391H43.6347V42.5639C43.6319 40.306 43.0815 38.0824 42.0308 36.0838C43.6069 34.8727 45.3112 33.8383 47.1129 32.9989L46.0259 36.9826ZM47.4689 31.4597C45.9221 32.0887 40.1736 34.6902 36.7732 39.7888C35.7141 41.3781 34.9363 42.7375 34.3155 43.8302C32.692 46.6737 32.0845 47.7391 29.699 47.7391H20.8308C19.656 47.7945 18.4816 47.6225 17.3722 47.2324C16.7647 46.979 16.7052 46.6692 16.6855 46.5679C16.5588 45.9307 17.222 44.7835 18.3679 43.6452C19.1417 42.8635 20.0533 42.2317 21.0569 41.7816C21.4896 41.557 21.9571 41.4071 22.4397 41.3382C23.2915 41.8872 24.246 42.2572 25.2452 42.4258C26.794 42.671 29.0243 42.4258 30.8474 39.8718C31.2572 39.2985 31.688 38.6834 32.1421 38.0348C34.9983 33.9523 38.9098 28.3615 44.4531 23.605C44.7129 23.383 45.1028 23.4112 45.3279 23.6683C46.2654 24.7395 47.7616 27.1592 47.4689 31.4597Z" fill="#9076AD"/>
  <path d="M21.5678 42.9409C20.7068 43.3284 19.9249 43.8718 19.2614 44.5435C19.0083 44.7943 18.7711 45.0606 18.5513 45.341C18.4124 45.5198 18.3794 45.7592 18.4647 45.9689C18.5501 46.1786 18.7408 46.3269 18.9651 46.3578C19.1895 46.3888 19.4132 46.2977 19.5522 46.1189C19.7389 45.8808 19.9405 45.6549 20.1559 45.4424C20.7086 44.8806 21.3604 44.4257 22.0784 44.1008C22.383 43.9517 22.5162 43.589 22.3804 43.2782C22.2446 42.9673 21.888 42.8186 21.5716 42.9409H21.5678Z" fill="#9076AD"/>
</svg>
