<svg xmlns="http://www.w3.org/2000/svg" width="28" height="28" viewBox="0 0 28 28" fill="none" aria-hidden="true">
  <path d="M5.83398 22.1668V12.0261C5.83398 11.7274 5.90087 11.4447 6.03465 11.1779C6.16843 10.9112 6.35276 10.6914 6.58765 10.5188L12.8702 5.76111C13.1992 5.50989 13.5748 5.38428 13.9972 5.38428C14.4195 5.38428 14.7975 5.50989 15.1312 5.76111L21.4137 10.5176C21.6493 10.6903 21.8337 10.9104 21.9667 11.1779C22.1004 11.4447 22.1673 11.7274 22.1673 12.0261V22.1668C22.1673 22.4794 22.051 22.7521 21.8185 22.9846C21.5859 23.2172 21.3133 23.3334 21.0007 23.3334H17.0527C16.7851 23.3334 16.5611 23.2432 16.3807 23.0628C16.2002 22.8816 16.11 22.6576 16.11 22.3908V16.8269C16.11 16.5602 16.0198 16.3366 15.8393 16.1561C15.6581 15.9749 15.4341 15.8843 15.1673 15.8843H12.834C12.5672 15.8843 12.3436 15.9749 12.1632 16.1561C11.9819 16.3366 11.8913 16.5602 11.8913 16.8269V22.3919C11.8913 22.6587 11.8011 22.8823 11.6207 23.0628C11.4402 23.2432 11.2166 23.3334 10.9498 23.3334H7.00065C6.68798 23.3334 6.41537 23.2172 6.18282 22.9846C5.95026 22.7521 5.83398 22.4794 5.83398 22.1668Z" fill="white"/>
</svg>
