<svg xmlns="http://www.w3.org/2000/svg" width="24" height="24" viewBox="0 0 24 24" fill="none" aria-hidden="true">
  <path d="M16.5 4.20589C17.8682 4.99581 19.0043 6.13195 19.7942 7.50012C20.5842 8.8683 21 10.4203 21 12.0001C21 13.58 20.5841 15.1319 19.7942 16.5001C19.0043 17.8683 17.8681 19.0044 16.4999 19.7943C15.1317 20.5842 13.5797 21 11.9999 21C10.42 21 8.86802 20.5841 7.49985 19.7942C6.13169 19.0042 4.99556 17.868 4.20567 16.4999C3.41578 15.1317 2.99996 13.5797 3 11.9998L3.0045 11.7082C3.0549 10.1539 3.50719 8.63923 4.31728 7.31177C5.12736 5.9843 6.26759 4.8894 7.6268 4.13379C8.98602 3.37818 10.5178 2.98766 12.0729 3.0003C13.628 3.01293 15.1532 3.4283 16.5 4.20589ZM14.7 10.1999H9.3C9.12195 10.1997 8.94786 10.2524 8.79975 10.3512C8.65164 10.45 8.53618 10.5906 8.46796 10.755C8.39975 10.9195 8.38185 11.1005 8.41653 11.2752C8.45121 11.4498 8.53692 11.6102 8.6628 11.7361L11.3628 14.4361C11.4464 14.5198 11.5456 14.5862 11.6549 14.6315C11.7642 14.6768 11.8813 14.7001 11.9995 14.7001C12.1178 14.7001 12.2349 14.6768 12.3442 14.6315C12.4535 14.5862 12.5527 14.5198 12.6363 14.4361L15.3363 11.7361C15.505 11.5674 15.5998 11.3385 15.5998 11.0998C15.5998 10.8612 15.505 10.6323 15.3363 10.4635L15.2517 10.3888C15.0939 10.2664 14.8998 10.1999 14.7 10.1999Z" fill="white"/>
</svg>
