<svg xmlns="http://www.w3.org/2000/svg" width="920" height="680" viewBox="0 0 920 680" fill="none">
  <path d="M-40 520C120 420 220 560 380 500C540 440 640 580 820 520" stroke="#CFC8BE" stroke-width="1.2" opacity="0.55"/>
  <path d="M-20 580C140 480 240 620 400 560C560 500 660 640 840 580" stroke="#CFC8BE" stroke-width="1.2" opacity="0.42"/>
  <path d="M0 640C160 540 260 680 420 620C580 560 680 700 860 640" stroke="#CFC8BE" stroke-width="1.2" opacity="0.32"/>
  <path d="M40 420C200 320 300 460 460 400C620 340 720 480 900 420" stroke="#D8D2C9" stroke-width="1" opacity="0.38"/>
  <path d="M20 360C180 260 280 400 440 340C600 280 700 420 880 360" stroke="#D8D2C9" stroke-width="1" opacity="0.28"/>
  <path d="M60 300C220 200 320 340 480 280C640 220 740 360 920 300" stroke="#E2DDD6" stroke-width="1" opacity="0.22"/>
</svg>
