<svg xmlns="http://www.w3.org/2000/svg" width="40" height="40" viewBox="0 0 40 40" fill="none">
  <path d="M6 20.0002C6 20.4422 6.1756 20.8661 6.48816 21.1787C6.80072 21.4912 7.22464 21.6668 7.66667 21.6668H20.3167L16.4833 25.4835C16.3271 25.6384 16.2031 25.8228 16.1185 26.0259C16.0339 26.229 15.9903 26.4468 15.9903 26.6668C15.9903 26.8868 16.0339 27.1047 16.1185 27.3078C16.2031 27.5109 16.3271 27.6952 16.4833 27.8502C16.6383 28.0064 16.8226 28.1304 17.0257 28.215C17.2288 28.2996 17.4466 28.3432 17.6667 28.3432C17.8867 28.3432 18.1045 28.2996 18.3076 28.215C18.5107 28.1304 18.6951 28.0064 18.85 27.8502L25.5167 21.1835C25.6684 21.025 25.7873 20.8381 25.8667 20.6335C26.0334 20.2277 26.0334 19.7726 25.8667 19.3668C25.7873 19.1622 25.6684 18.9753 25.5167 18.8168L18.85 12.1502C18.6946 11.9948 18.5101 11.8715 18.3071 11.7874C18.104 11.7033 17.8864 11.66 17.6667 11.66C17.4469 11.66 17.2293 11.7033 17.0262 11.7874C16.8232 11.8715 16.6387 11.9948 16.4833 12.1502C16.3279 12.3056 16.2047 12.49 16.1206 12.6931C16.0365 12.8961 15.9932 13.1137 15.9932 13.3335C15.9932 13.5533 16.0365 13.7709 16.1206 13.9739C16.2047 14.1769 16.3279 14.3614 16.4833 14.5168L20.3167 18.3335H7.66667C7.22464 18.3335 6.80072 18.5091 6.48816 18.8217C6.1756 19.1342 6 19.5581 6 20.0002ZM27.6667 3.3335H11C9.67392 3.3335 8.40215 3.86028 7.46447 4.79796C6.52678 5.73564 6 7.00741 6 8.3335V13.3335C6 13.7755 6.1756 14.1994 6.48816 14.512C6.80072 14.8246 7.22464 15.0002 7.66667 15.0002C8.10869 15.0002 8.53262 14.8246 8.84518 14.512C9.15774 14.1994 9.33333 13.7755 9.33333 13.3335V8.3335C9.33333 7.89147 9.50893 7.46755 9.82149 7.15498C10.134 6.84242 10.558 6.66683 11 6.66683H27.6667C28.1087 6.66683 28.5326 6.84242 28.8452 7.15498C29.1577 7.46755 29.3333 7.89147 29.3333 8.3335V31.6668C29.3333 32.1089 29.1577 32.5328 28.8452 32.8453C28.5326 33.1579 28.1087 33.3335 27.6667 33.3335H11C10.558 33.3335 10.134 33.1579 9.82149 32.8453C9.50893 32.5328 9.33333 32.1089 9.33333 31.6668V26.6668C9.33333 26.2248 9.15774 25.8009 8.84518 25.4883C8.53262 25.1758 8.10869 25.0002 7.66667 25.0002C7.22464 25.0002 6.80072 25.1758 6.48816 25.4883C6.1756 25.8009 6 26.2248 6 26.6668V31.6668C6 32.9929 6.52678 34.2647 7.46447 35.2024C8.40215 36.14 9.67392 36.6668 11 36.6668H27.6667C28.9927 36.6668 30.2645 36.14 31.2022 35.2024C32.1399 34.2647 32.6667 32.9929 32.6667 31.6668V8.3335C32.6667 7.00741 32.1399 5.73564 31.2022 4.79796C30.2645 3.86028 28.9927 3.3335 27.6667 3.3335Z" fill="#000"/>
</svg>
