<svg width="367" height="35" viewBox="0 0 367 35" fill="none" xmlns="http://www.w3.org/2000/svg" aria-hidden="true">
<path d="M-0.000234246 33.75V0.584998H6.02977L12.0598 17.37C12.4498 18.45 12.8248 19.56 13.1848 20.7C13.5448 21.81 13.9048 22.92 14.2648 24.03H14.4898C14.8798 22.92 15.2398 21.81 15.5698 20.7C15.9298 19.56 16.2898 18.45 16.6498 17.37L22.5898 0.584998H28.6648V33.75H23.8048V17.37C23.8048 16.38 23.8348 15.285 23.8948 14.085C23.9848 12.885 24.0748 11.67 24.1648 10.44C24.2848 9.21 24.4048 8.1 24.5248 7.11H24.2998L21.6448 14.76L15.8848 30.555H12.6448L6.83977 14.76L4.18477 7.11H4.00477C4.12477 8.1 4.22977 9.21 4.31977 10.44C4.43977 11.67 4.52977 12.885 4.58977 14.085C4.67977 15.285 4.72477 16.38 4.72477 17.37V33.75H-0.000234246ZM37.3533 33.75V0.584998H56.9283V4.995H42.5733V14.22H54.7233V18.63H42.5733V29.295H57.4233V33.75H37.3533ZM71.0407 33.75V4.995H61.3657V0.584998H86.0707V4.995H76.3507V33.75H71.0407ZM85.2832 33.75L96.2632 0.584998H102.293L113.273 33.75H107.738L102.383 15.75C101.843 13.95 101.318 12.135 100.808 10.305C100.298 8.445 99.7882 6.585 99.2782 4.725H99.0982C98.6182 6.615 98.1082 8.475 97.5682 10.305C97.0582 12.135 96.5332 13.95 95.9932 15.75L90.6382 33.75H85.2832ZM91.4932 24.345V20.205H106.973V24.345H91.4932ZM117.641 33.75V0.584998H127.676C130.166 0.584998 132.356 0.914998 134.246 1.575C136.136 2.205 137.621 3.255 138.701 4.725C139.811 6.165 140.366 8.145 140.366 10.665C140.366 13.065 139.826 15.045 138.746 16.605C137.666 18.135 136.181 19.29 134.291 20.07C132.431 20.82 130.286 21.195 127.856 21.195H122.861V33.75H117.641ZM122.861 16.965H127.406C130.016 16.965 131.966 16.455 133.256 15.435C134.546 14.415 135.191 12.825 135.191 10.665C135.191 8.445 134.516 6.915 133.166 6.075C131.816 5.235 129.821 4.815 127.181 4.815H122.861V16.965ZM159.421 34.38C156.601 34.38 154.096 33.675 151.906 32.265C149.746 30.855 148.051 28.86 146.821 26.28C145.591 23.67 144.976 20.595 144.976 17.055C144.976 13.485 145.591 10.44 146.821 7.92C148.051 5.37 149.746 3.42 151.906 2.07C154.096 0.689997 156.601 -2.68221e-06 159.421 -2.68221e-06C162.271 -2.68221e-06 164.776 0.689997 166.936 2.07C169.096 3.42 170.791 5.37 172.021 7.92C173.251 10.44 173.866 13.485 173.866 17.055C173.866 20.595 173.251 23.67 172.021 26.28C170.791 28.86 169.096 30.855 166.936 32.265C164.776 33.675 162.271 34.38 159.421 34.38ZM159.421 29.79C161.251 29.79 162.841 29.265 164.191 28.215C165.571 27.165 166.636 25.695 167.386 23.805C168.136 21.885 168.511 19.635 168.511 17.055C168.511 14.475 168.136 12.255 167.386 10.395C166.636 8.505 165.571 7.065 164.191 6.075C162.841 5.055 161.251 4.545 159.421 4.545C157.591 4.545 155.986 5.055 154.606 6.075C153.256 7.065 152.206 8.505 151.456 10.395C150.736 12.255 150.376 14.475 150.376 17.055C150.376 19.635 150.736 21.885 151.456 23.805C152.206 25.695 153.256 27.165 154.606 28.215C155.986 29.265 157.591 29.79 159.421 29.79ZM180.747 33.75V0.584998H185.967V29.295H200.007V33.75H180.747ZM205.84 33.75V0.584998H211.06V33.75H205.84ZM229.176 34.38C226.896 34.38 224.736 33.945 222.696 33.075C220.686 32.205 218.916 31.005 217.386 29.475L220.446 25.875C221.646 27.045 223.011 27.99 224.541 28.71C226.101 29.43 227.691 29.79 229.311 29.79C231.291 29.79 232.806 29.355 233.856 28.485C234.936 27.615 235.476 26.49 235.476 25.11C235.476 24.09 235.251 23.28 234.801 22.68C234.351 22.05 233.721 21.525 232.911 21.105C232.131 20.685 231.231 20.25 230.211 19.8L225.621 17.82C224.541 17.37 223.476 16.785 222.426 16.065C221.406 15.315 220.551 14.385 219.861 13.275C219.201 12.135 218.871 10.755 218.871 9.135C218.871 7.395 219.336 5.835 220.266 4.455C221.196 3.075 222.486 1.995 224.136 1.215C225.786 0.404997 227.661 -2.68221e-06 229.761 -2.68221e-06C231.711 -2.68221e-06 233.556 0.374998 235.296 1.125C237.036 1.875 238.521 2.895 239.751 4.185L237.096 7.515C236.046 6.585 234.921 5.865 233.721 5.355C232.551 4.815 231.231 4.545 229.761 4.545C228.051 4.545 226.701 4.935 225.711 5.715C224.721 6.465 224.226 7.485 224.226 8.775C224.226 9.735 224.481 10.53 224.991 11.16C225.501 11.76 226.161 12.27 226.971 12.69C227.811 13.08 228.666 13.455 229.536 13.815L234.081 15.75C235.401 16.29 236.571 16.95 237.591 17.73C238.611 18.51 239.406 19.455 239.976 20.565C240.546 21.675 240.831 23.055 240.831 24.705C240.831 26.475 240.366 28.095 239.436 29.565C238.506 31.005 237.171 32.175 235.431 33.075C233.691 33.945 231.606 34.38 229.176 34.38ZM257.212 33.75V0.584998H263.242L269.272 17.37C269.662 18.45 270.037 19.56 270.397 20.7C270.757 21.81 271.117 22.92 271.477 24.03H271.702C272.092 22.92 272.452 21.81 272.782 20.7C273.142 19.56 273.502 18.45 273.862 17.37L279.802 0.584998H285.877V33.75H281.017V17.37C281.017 16.38 281.047 15.285 281.107 14.085C281.197 12.885 281.287 11.67 281.377 10.44C281.497 9.21 281.617 8.1 281.737 7.11H281.512L278.857 14.76L273.097 30.555H269.857L264.052 14.76L261.397 7.11H261.217C261.337 8.1 261.442 9.21 261.532 10.44C261.652 11.67 261.742 12.885 261.802 14.085C261.892 15.285 261.937 16.38 261.937 17.37V33.75H257.212ZM290.2 33.75L301.18 0.584998H307.21L318.19 33.75H312.655L307.3 15.75C306.76 13.95 306.235 12.135 305.725 10.305C305.215 8.445 304.705 6.585 304.195 4.725H304.015C303.535 6.615 303.025 8.475 302.485 10.305C301.975 12.135 301.45 13.95 300.91 15.75L295.555 33.75H290.2ZM296.41 24.345V20.205H311.89V24.345H296.41ZM322.558 33.75V0.584998H327.778V29.295H341.818V33.75H322.558ZM347.651 33.75V0.584998H352.871V29.295H366.911V33.75H347.651Z" fill="#B89968"/>
</svg>
