<svg width="294" height="28" viewBox="0 0 294 28" fill="none" xmlns="http://www.w3.org/2000/svg">
<path d="M-0.000187397 27V0.467998H4.82381L9.64781 13.896C9.95981 14.76 10.2598 15.648 10.5478 16.56C10.8358 17.448 11.1238 18.336 11.4118 19.224H11.5918C11.9038 18.336 12.1918 17.448 12.4558 16.56C12.7438 15.648 13.0318 14.76 13.3198 13.896L18.0718 0.467998H22.9318V27H19.0438V13.896C19.0438 13.104 19.0678 12.228 19.1158 11.268C19.1878 10.308 19.2598 9.336 19.3318 8.352C19.4278 7.368 19.5238 6.48 19.6198 5.688H19.4398L17.3158 11.808L12.7078 24.444H10.1158L5.47181 11.808L3.34781 5.688H3.20381C3.29981 6.48 3.38381 7.368 3.45581 8.352C3.55181 9.336 3.62381 10.308 3.67181 11.268C3.74381 12.228 3.77981 13.104 3.77981 13.896V27H-0.000187397ZM29.8826 27V0.467998H45.5426V3.996H34.0586V11.376H43.7786V14.904H34.0586V23.436H45.9386V27H29.8826ZM56.8326 27V3.996H49.0926V0.467998H68.8566V3.996H61.0806V27H56.8326ZM68.2266 27L77.0106 0.467998H81.8346L90.6186 27H86.1906L81.9066 12.6C81.4746 11.16 81.0546 9.708 80.6466 8.244C80.2386 6.756 79.8306 5.268 79.4226 3.78H79.2786C78.8946 5.292 78.4866 6.78 78.0546 8.244C77.6466 9.708 77.2266 11.16 76.7946 12.6L72.5106 27H68.2266ZM73.1946 19.476V16.164H85.5786V19.476H73.1946ZM94.1131 27V0.467998H102.141C104.133 0.467998 105.885 0.731998 107.397 1.26C108.909 1.764 110.097 2.604 110.961 3.78C111.849 4.932 112.293 6.516 112.293 8.532C112.293 10.452 111.861 12.036 110.997 13.284C110.133 14.508 108.945 15.432 107.433 16.056C105.945 16.656 104.229 16.956 102.285 16.956H98.2891V27H94.1131ZM98.2891 13.572H101.925C104.013 13.572 105.573 13.164 106.605 12.348C107.637 11.532 108.153 10.26 108.153 8.532C108.153 6.756 107.613 5.532 106.533 4.86C105.453 4.188 103.857 3.852 101.745 3.852H98.2891V13.572ZM127.537 27.504C125.281 27.504 123.277 26.94 121.525 25.812C119.797 24.684 118.441 23.088 117.457 21.024C116.473 18.936 115.981 16.476 115.981 13.644C115.981 10.788 116.473 8.352 117.457 6.336C118.441 4.296 119.797 2.736 121.525 1.656C123.277 0.551998 125.281 -2.14577e-06 127.537 -2.14577e-06C129.817 -2.14577e-06 131.821 0.551998 133.549 1.656C135.277 2.736 136.633 4.296 137.617 6.336C138.601 8.352 139.093 10.788 139.093 13.644C139.093 16.476 138.601 18.936 137.617 21.024C136.633 23.088 135.277 24.684 133.549 25.812C131.821 26.94 129.817 27.504 127.537 27.504ZM127.537 23.832C129.001 23.832 130.273 23.412 131.353 22.572C132.457 21.732 133.309 20.556 133.909 19.044C134.509 17.508 134.809 15.708 134.809 13.644C134.809 11.58 134.509 9.804 133.909 8.316C133.309 6.804 132.457 5.652 131.353 4.86C130.273 4.044 129.001 3.636 127.537 3.636C126.073 3.636 124.789 4.044 123.685 4.86C122.605 5.652 121.765 6.804 121.165 8.316C120.589 9.804 120.301 11.58 120.301 13.644C120.301 15.708 120.589 17.508 121.165 19.044C121.765 20.556 122.605 21.732 123.685 22.572C124.789 23.412 126.073 23.832 127.537 23.832ZM144.597 27V0.467998H148.773V23.436H160.005V27H144.597ZM164.672 27V0.467998H168.848V27H164.672ZM183.341 27.504C181.517 27.504 179.789 27.156 178.157 26.46C176.549 25.764 175.133 24.804 173.909 23.58L176.357 20.7C177.317 21.636 178.409 22.392 179.633 22.968C180.881 23.544 182.153 23.832 183.449 23.832C185.033 23.832 186.245 23.484 187.085 22.788C187.949 22.092 188.381 21.192 188.381 20.088C188.381 19.272 188.201 18.624 187.841 18.144C187.481 17.64 186.977 17.22 186.329 16.884C185.705 16.548 184.985 16.2 184.169 15.84L180.497 14.256C179.633 13.896 178.781 13.428 177.941 12.852C177.125 12.252 176.441 11.508 175.889 10.62C175.361 9.708 175.097 8.604 175.097 7.308C175.097 5.916 175.469 4.668 176.213 3.564C176.957 2.46 177.989 1.596 179.309 0.971998C180.629 0.323998 182.129 -2.14577e-06 183.809 -2.14577e-06C185.369 -2.14577e-06 186.845 0.299998 188.237 0.899999C189.629 1.5 190.817 2.316 191.801 3.348L189.677 6.012C188.837 5.268 187.937 4.692 186.977 4.284C186.041 3.852 184.985 3.636 183.809 3.636C182.441 3.636 181.361 3.948 180.569 4.572C179.777 5.172 179.381 5.988 179.381 7.02C179.381 7.788 179.585 8.424 179.993 8.928C180.401 9.408 180.929 9.816 181.577 10.152C182.249 10.464 182.933 10.764 183.629 11.052L187.265 12.6C188.321 13.032 189.257 13.56 190.073 14.184C190.889 14.808 191.525 15.564 191.981 16.452C192.437 17.34 192.665 18.444 192.665 19.764C192.665 21.18 192.293 22.476 191.549 23.652C190.805 24.804 189.737 25.74 188.345 26.46C186.953 27.156 185.285 27.504 183.341 27.504ZM205.769 27V0.467998H210.593L215.417 13.896C215.729 14.76 216.029 15.648 216.317 16.56C216.605 17.448 216.893 18.336 217.181 19.224H217.361C217.673 18.336 217.961 17.448 218.225 16.56C218.513 15.648 218.801 14.76 219.089 13.896L223.841 0.467998H228.701V27H224.813V13.896C224.813 13.104 224.837 12.228 224.885 11.268C224.957 10.308 225.029 9.336 225.101 8.352C225.197 7.368 225.293 6.48 225.389 5.688H225.209L223.085 11.808L218.477 24.444H215.885L211.241 11.808L209.117 5.688H208.973C209.069 6.48 209.153 7.368 209.225 8.352C209.321 9.336 209.393 10.308 209.441 11.268C209.513 12.228 209.549 13.104 209.549 13.896V27H205.769ZM232.16 27L240.944 0.467998H245.768L254.552 27H250.124L245.84 12.6C245.408 11.16 244.988 9.708 244.58 8.244C244.172 6.756 243.764 5.268 243.356 3.78H243.212C242.828 5.292 242.42 6.78 241.988 8.244C241.58 9.708 241.16 11.16 240.728 12.6L236.444 27H232.16ZM237.128 19.476V16.164H249.512V19.476H237.128ZM258.047 27V0.467998H262.223V23.436H273.455V27H258.047ZM278.121 27V0.467998H282.297V23.436H293.529V27H278.121Z" fill="#1A2E3B"/>
</svg>
