<svg width="317" height="40" viewBox="0 0 317 40" fill="none" xmlns="http://www.w3.org/2000/svg" aria-hidden="true">
  <path d="M2.87109 39.5359V7L21.0565 27.0957L39.2419 7V39.5359" stroke="#B89968" stroke-width="5.74864" stroke-miterlimit="14"/>
  <path d="M71.21 2.87106H75.3735L83.4133 22.9189L91.4532 2.87106H95.6645V27.4165H92.4103V17.8471L92.6974 7.51221L84.6097 27.4165H82.1212L74.0813 7.56006L74.4163 17.8471V27.4165H71.1621V2.87106H71.21ZM122.512 13.4452V16.0768H111.888V24.7849H124.235V27.4165H108.634V2.87106H124.091V5.55049H111.888V13.4452H122.512ZM154.336 2.87106V5.55049H146.44V27.4644H143.234V5.55049H135.337V2.87106H154.336ZM180.274 27.4644L177.929 21.0529H167.64L165.343 27.4644H161.993L171.373 2.91891H174.197L183.577 27.4644H180.274ZM172.761 6.8902L168.598 18.3735H176.972L172.809 6.8902H172.761ZM205.016 17.8471H199.226V27.4644H195.971V2.87106H205.016C207.696 2.87106 209.802 3.54092 211.333 4.92848C212.865 6.31604 213.63 8.13422 213.63 10.383C213.63 12.7754 212.865 14.5936 211.381 15.8854C209.897 17.1773 207.744 17.7993 204.968 17.7993L205.016 17.8471ZM199.226 5.55049V15.1677H205.064C206.787 15.1677 208.127 14.7371 209.036 13.9237C209.945 13.1103 210.424 11.9141 210.424 10.383C210.424 8.89977 209.945 7.75144 209.036 6.8902C208.127 6.02896 206.835 5.55049 205.255 5.50264H199.273L199.226 5.55049ZM243.971 14.4022V15.9333C243.971 18.3256 243.588 20.4309 242.775 22.2491C241.961 24.0672 240.813 25.4069 239.329 26.3639C237.846 27.3208 236.123 27.7993 234.113 27.7993C232.199 27.7993 230.476 27.3208 228.944 26.3639C227.461 25.4069 226.312 24.0672 225.451 22.2969C224.637 20.5266 224.207 18.517 224.159 16.1725V14.4022C224.159 12.0577 224.589 9.9524 225.403 8.13422C226.216 6.31604 227.365 4.92848 228.896 3.97154C230.38 3.0146 232.103 2.53613 234.065 2.53613C236.027 2.53613 237.75 3.0146 239.281 3.97154C240.765 4.92848 241.961 6.31604 242.727 8.08637C243.54 9.90455 243.923 12.0098 243.923 14.4022H243.971ZM240.717 16.1725V14.3543C240.717 11.4357 240.143 9.18685 238.946 7.65575C237.798 6.0768 236.123 5.31125 234.017 5.31125C231.959 5.31125 230.332 6.0768 229.184 7.65575C227.987 9.2347 227.413 11.3878 227.365 14.1629V15.9811C227.365 18.8041 227.939 21.005 229.136 22.6318C230.332 24.2586 231.959 25.072 234.017 25.072C236.123 25.072 237.75 24.3065 238.898 22.7754C240.047 21.2443 240.621 19.0433 240.669 16.2203L240.717 16.1725ZM259.333 2.87106V24.7849H270.962V27.4165H256.079V2.87106H259.333ZM286.803 2.87106V27.895H283.548V2.87106H286.803ZM307.668 16.5074C304.892 15.694 302.882 14.7371 301.59 13.5409C300.346 12.3926 299.676 10.9572 299.676 9.2347C299.676 7.32082 300.442 5.69403 301.973 4.45001C303.504 3.20599 305.514 2.53613 308.003 2.53613C309.678 2.53613 311.209 2.87106 312.501 3.49307C313.841 4.16293 314.846 5.02417 315.564 6.1725C316.282 7.32082 316.665 8.56484 316.665 9.9524H313.411C313.411 8.46915 312.932 7.32082 311.975 6.45958C311.018 5.59833 309.678 5.16771 307.955 5.16771C306.376 5.16771 305.131 5.50264 304.222 6.22034C303.313 6.93805 302.882 7.89499 302.882 9.139C302.882 10.1438 303.313 11.005 304.174 11.6749C305.036 12.3447 306.471 13.0146 308.529 13.5888C310.587 14.1629 312.166 14.7849 313.315 15.5026C314.463 16.1725 315.325 16.9859 315.899 17.9428C316.473 18.8519 316.713 19.9524 316.713 21.1964C316.713 23.206 315.947 24.7849 314.368 25.9811C312.788 27.1773 310.731 27.7993 308.146 27.7993C306.471 27.7993 304.892 27.4644 303.409 26.8424C301.925 26.1725 300.824 25.3113 300.011 24.1629C299.197 23.0625 298.814 21.7706 298.814 20.3352H302.069C302.069 21.8184 302.595 23.0146 303.696 23.8758C304.796 24.7371 306.28 25.1677 308.099 25.1677C309.821 25.1677 311.114 24.8328 312.023 24.1151C312.932 23.3974 313.411 22.4404 313.411 21.2443C313.411 20.0481 312.98 19.0912 312.166 18.4691C311.305 17.7993 309.774 17.1773 307.572 16.5074H307.668Z" fill="#B89968"/>
  <path d="M318 39H70V40H318V39Z" fill="#B89968"/>
</svg>
