<svg xmlns="http://www.w3.org/2000/svg" width="34" height="34" viewBox="0 0 34 34" fill="none">
  <path fill-rule="evenodd" clip-rule="evenodd" d="M16.6667 33.3333C25.8717 33.3333 33.3333 25.8717 33.3333 16.6667C33.3333 7.46167 25.8717 0 16.6667 0C7.46167 0 0 7.46167 0 16.6667C0 25.8717 7.46167 33.3333 16.6667 33.3333ZM16.675 9.59667C16.3625 9.90921 16.187 10.3331 16.187 10.775C16.187 11.2169 16.3625 11.6408 16.675 11.9533L19.7217 15H9.595C9.15297 15 8.72905 15.1756 8.41649 15.4882C8.10393 15.8007 7.92833 16.2246 7.92833 16.6667C7.92833 17.1087 8.10393 17.5326 8.41649 17.8452C8.72905 18.1577 9.15297 18.3333 9.595 18.3333H19.7217L16.675 21.3817C16.3714 21.696 16.2034 22.117 16.2072 22.554C16.211 22.991 16.3863 23.409 16.6953 23.718C17.0043 24.027 17.4223 24.2023 17.8593 24.2061C18.2963 24.2099 18.7173 24.0419 19.0317 23.7383L24.9233 17.845C25.2358 17.5325 25.4113 17.1086 25.4113 16.6667C25.4113 16.2247 25.2358 15.8009 24.9233 15.4883L19.0333 9.59667C18.7208 9.28421 18.2969 9.10869 17.855 9.10869C17.4131 9.10869 16.9875 9.28421 16.675 9.59667Z" fill="#8A6E3E"/>
</svg>
