<svg xmlns="http://www.w3.org/2000/svg" width="35" height="31" viewBox="0 0 35 31" fill="none" aria-hidden="true">
  <path d="M17.199 0C7.73955 0 0 6.19164 0 13.7592C0 17.371 1.7199 20.8108 4.81572 23.2186C4.81572 24.2506 4.12776 27.0024 0 30.9582C0 30.9582 6.01965 30.9582 11.1794 26.6584C13.0712 27.1744 15.1351 27.5184 17.199 27.5184C26.6585 27.5184 34.398 21.3268 34.398 13.7592C34.398 6.19164 26.6585 0 17.199 0ZM18.9189 20.6388H15.4791V17.199H18.9189V20.6388ZM22.0147 12.0393C21.4988 12.7273 20.8108 13.0712 20.1228 13.4152C19.6069 13.7592 19.4349 13.9312 19.2629 14.2752C18.9189 14.6191 18.9189 14.9631 18.9189 15.4791H15.4791C15.4791 14.6191 15.6511 14.1032 15.9951 13.5872C16.3391 13.2432 17.027 12.7273 17.887 12.2113C18.4029 12.0393 18.7469 11.6953 18.9189 11.3513C19.0909 11.0074 19.2629 10.4914 19.2629 10.1474C19.2629 9.63144 19.0909 9.28746 18.7469 8.94348C18.4029 8.5995 17.887 8.42751 17.371 8.42751C16.855 8.42751 16.511 8.5995 16.1671 8.77149C15.8231 8.94348 15.6511 9.28746 15.6511 9.80343H12.2113C12.3833 8.5995 12.8993 7.56756 13.7592 6.8796C14.6192 6.19164 15.8231 6.01965 17.371 6.01965C18.9189 6.01965 20.2948 6.36363 21.1548 7.05159C22.0147 7.73955 22.5307 8.77149 22.5307 9.97542C22.7027 10.6634 22.5307 11.3513 22.0147 12.0393Z" fill="white"/>
</svg>
