<svg xmlns="http://www.w3.org/2000/svg" width="26" height="33" viewBox="0 0 26 33" fill="none" aria-hidden="true">
  <path d="M12.9504 0C9.51702 0.00405051 6.22538 1.36977 3.79758 3.79757C1.36978 6.22537 0.00405864 9.51701 8.12838e-06 12.9504C-0.00314864 15.7561 0.913258 18.4855 2.60893 20.7207C2.60893 20.7207 2.96213 21.1857 3.01981 21.2528L12.9504 32.9647L22.8858 21.247C22.9376 21.1846 23.292 20.7207 23.292 20.7207L23.2931 20.7172C24.9877 18.4827 25.9036 15.7547 25.9009 12.9504C25.8968 9.51701 24.5311 6.22537 22.1033 3.79757C19.6755 1.36977 16.3839 0.00405051 12.9504 0ZM12.9504 17.6597C12.019 17.6597 11.1086 17.3835 10.3341 16.866C9.55969 16.3486 8.9561 15.6131 8.59966 14.7526C8.24323 13.8921 8.14997 12.9452 8.33168 12.0317C8.51339 11.1182 8.9619 10.2791 9.6205 9.62049C10.2791 8.96189 11.1182 8.51338 12.0317 8.33167C12.9452 8.14997 13.8921 8.24323 14.7526 8.59966C15.6131 8.95609 16.3486 9.55969 16.866 10.3341C17.3835 11.1086 17.6597 12.019 17.6597 12.9504C17.6581 14.1989 17.1615 15.3958 16.2787 16.2787C15.3958 17.1615 14.1989 17.6581 12.9504 17.6597Z" fill="white"/>
</svg>
