<svg xmlns="http://www.w3.org/2000/svg" width="121" height="119" viewBox="0 0 121 119" fill="none">
  <path d="M60.0616 9.52377L60.7217 0.0306887L62.0445 0.122671L63.5374 5.45207C63.6362 5.78038 63.7298 6.12136 63.8181 6.47501C63.9157 6.82061 64.009 7.16591 64.0979 7.51091L64.1628 7.51542C64.2986 7.18605 64.4345 6.85668 64.5703 6.52731C64.7067 6.18929 64.838 5.86395 64.9639 5.55127L67.1801 0.479777L68.5029 0.571759L67.8428 10.0648L66.8442 9.9954L67.2257 4.50965C67.2449 4.23298 67.2697 3.93932 67.2999 3.62868C67.3395 3.30999 67.379 2.99129 67.4185 2.6726C67.4673 2.34587 67.51 2.04477 67.5465 1.7693L67.4946 1.7657L66.5928 3.86619L64.3829 8.8469L63.6308 8.7946L62.1315 3.55598L61.529 1.35087L61.4772 1.34727C61.4839 1.62574 61.4844 1.92984 61.4789 2.25958C61.4739 2.58068 61.4647 2.90148 61.4511 3.22197C61.4467 3.53442 61.4349 3.82898 61.4157 4.10565L61.0342 9.5914L60.0616 9.52377ZM70.4279 10.4812L72.7674 1.25728L78.022 2.59002L77.7983 3.47209L73.5896 2.40462L72.8193 5.44146L76.3602 6.33955L76.1365 7.22162L72.5956 6.32353L71.6975 9.86442L76.0449 10.967L75.8212 11.8491L70.4279 10.4812ZM79.5508 13.2992L82.873 5.36027L80.1988 4.24116L80.5501 3.4017L86.918 6.06648L86.5667 6.90595L83.8804 5.78182L80.5582 13.7207L79.5508 13.2992ZM83.0997 14.7948L90.8199 8.35156L91.8308 8.96607L89.676 18.7925L88.6984 18.1982L90.0345 12.6968C90.1626 12.1357 90.2951 11.5925 90.4319 11.0671C90.5732 10.5343 90.7175 9.98818 90.865 9.42868L90.8205 9.40167C90.4065 9.7991 89.9918 10.1809 89.5765 10.5471C89.1657 10.9059 88.7444 11.2736 88.3127 11.6501L84.0217 15.3553L83.0997 14.7948ZM86.0525 13.0907L86.4982 12.3575L90.2307 14.6265L89.785 15.3596L86.0525 13.0907ZM90.7296 19.6767L96.8883 12.4224L98.9001 14.1303C99.4484 14.5959 99.8652 15.0691 100.15 15.55C100.441 16.0243 100.567 16.5059 100.527 16.995C100.493 17.4896 100.255 17.9979 99.812 18.5198C99.3857 19.0219 98.9233 19.3456 98.4248 19.4908C97.932 19.6295 97.4167 19.607 96.8791 19.4234C96.348 19.2454 95.815 18.9293 95.2798 18.4749L94.0509 17.4317L91.5521 20.375L90.7296 19.6767ZM94.6146 16.7677L95.7246 17.71C96.3853 18.2709 96.9779 18.5637 97.5026 18.5885C98.0339 18.6189 98.5295 18.3632 98.9894 17.8215C99.4494 17.2797 99.6011 16.7662 99.4446 16.2809C99.2882 15.7957 98.8763 15.2698 98.209 14.7033L97.1387 13.7946L94.6146 16.7677ZM98.8352 27.8887C98.3336 27.2801 98.0438 26.6149 97.9657 25.8932C97.8943 25.1659 98.036 24.4316 98.3908 23.6901C98.7511 22.9552 99.3225 22.2654 100.105 21.6206C100.888 20.9758 101.667 20.5524 102.444 20.3503C103.226 20.1549 103.961 20.1673 104.648 20.3875C105.341 20.6022 105.939 21.0139 106.44 21.6225C106.942 22.2312 107.229 22.893 107.301 23.6081C107.386 24.3243 107.255 25.0443 106.908 25.7681C106.567 26.4986 106.005 27.1862 105.222 27.831C104.44 28.4758 103.651 28.9014 102.855 29.1079C102.065 29.321 101.32 29.3229 100.619 29.1137C99.9314 28.9057 99.3367 28.4974 98.8352 27.8887ZM99.5676 27.2853C99.9423 27.7401 100.395 28.03 100.924 28.155C101.454 28.28 102.027 28.246 102.643 28.053C103.265 27.8545 103.891 27.4963 104.52 26.9782C105.142 26.4657 105.603 25.9284 105.903 25.3663C106.211 24.7988 106.347 24.2486 106.312 23.7158C106.284 23.1774 106.083 22.6808 105.708 22.226C105.333 21.7712 104.881 21.4752 104.353 21.3379C103.836 21.2019 103.27 21.2304 102.655 21.4234C102.045 21.6109 101.43 21.9609 100.808 22.4734C100.179 22.9915 99.7077 23.537 99.3938 24.1101C99.0866 24.6776 98.9437 25.2333 98.9651 25.7772C98.992 26.3278 99.1928 26.8304 99.5676 27.2853ZM102.664 32.6145L110.907 27.8602L111.446 28.7949L103.991 33.0946L106.096 36.7432L105.308 37.1978L102.664 32.6145ZM106.021 38.7238L114.733 34.8977L115.167 35.8856L106.454 39.7118L106.021 38.7238ZM107.991 44.7252C107.791 44.0796 107.727 43.4506 107.8 42.8381C107.883 42.2312 108.073 41.6731 108.368 41.1638L109.265 41.5523C109.02 41.9913 108.859 42.4636 108.78 42.9691C108.712 43.4803 108.752 43.976 108.901 44.456C109.094 45.0767 109.387 45.5213 109.779 45.7897C110.179 46.0556 110.611 46.1165 111.074 45.9725C111.414 45.867 111.661 45.7131 111.816 45.5107C111.971 45.3082 112.078 45.0706 112.139 44.7977C112.199 44.5248 112.246 44.2242 112.28 43.896L112.455 42.3988C112.483 42.0814 112.548 41.7482 112.648 41.3994C112.751 41.0589 112.922 40.7471 113.161 40.4642C113.408 40.1787 113.751 39.9678 114.189 39.8315C114.653 39.6874 115.1 39.6801 115.53 39.8095C115.963 39.9472 116.345 40.1963 116.674 40.5566C117.012 40.9144 117.265 41.3623 117.432 41.9003C117.602 42.4465 117.654 42.9794 117.589 43.4988C117.523 44.0183 117.373 44.4826 117.137 44.8917L116.305 44.5375C116.488 44.1904 116.604 43.8186 116.653 43.4221C116.705 43.0339 116.662 42.6205 116.526 42.1819C116.361 41.6522 116.105 41.2645 115.756 41.0189C115.408 40.7733 115.018 40.7174 114.588 40.8511C114.282 40.9463 114.054 41.1033 113.904 41.3223C113.754 41.5413 113.653 41.7859 113.601 42.0562C113.56 42.3323 113.52 42.5987 113.482 42.8556L113.332 44.3451C113.291 44.739 113.211 45.1088 113.091 45.4545C112.975 45.8085 112.789 46.1158 112.534 46.3765C112.287 46.6346 111.937 46.8344 111.481 46.9759C111.01 47.1225 110.541 47.132 110.075 47.0046C109.611 46.8855 109.197 46.6331 108.832 46.2473C108.467 45.8616 108.187 45.3542 107.991 44.7252ZM114.002 54.2638C113.982 54.0481 114.042 53.8553 114.183 53.6855C114.332 53.5148 114.524 53.4185 114.757 53.3967C115.024 53.3717 115.243 53.4295 115.413 53.5703C115.582 53.7111 115.677 53.8893 115.698 54.1051C115.718 54.3208 115.658 54.5136 115.517 54.6835C115.377 54.8619 115.173 54.9637 114.906 54.9888C114.673 55.0106 114.466 54.9472 114.287 54.7986C114.117 54.6578 114.022 54.4796 114.002 54.2638ZM119.55 63.6795L118.871 68.0602L111.806 66.965L112.485 62.5844L119.55 63.6795ZM118.251 67.0563L118.653 64.4613L113.103 63.6011L112.701 66.1961L118.251 67.0563ZM119.6 72.3565L119.459 73.2686L107.884 71.4745L108.025 70.5624L119.6 72.3565ZM115.913 67.115L115.499 69.7871L114.715 69.6656L115.13 66.9935L115.913 67.115ZM119.697 70.03L119.556 70.9421L108.829 69.2794L108.971 68.3673L119.697 70.03ZM110.662 75.0587L110.313 75.8989C110.034 76.5711 109.787 77.1867 109.574 77.7455C109.36 78.3043 109.171 78.8498 109.006 79.3819C108.845 79.9254 108.7 80.4892 108.57 81.0733L107.798 80.8648C107.935 80.2647 108.085 79.6889 108.249 79.1375C108.417 78.5974 108.607 78.0382 108.819 77.4601C109.036 76.8932 109.286 76.2697 109.569 75.5895L109.918 74.7492L110.662 75.0587ZM117.109 77.7388L115.017 82.7684L114.273 82.459L115.995 78.3177L110.029 75.8372L110.398 74.9489L117.109 77.7388ZM113.797 77.1363L112.09 81.2416L111.37 80.9421L113.077 76.8369L113.797 77.1363ZM115.23 85.0672L114.861 85.9555L104.045 81.4587L104.415 80.5704L115.23 85.0672ZM110.564 83.9298L109.726 85.9464L108.969 85.632L109.808 83.6153L110.564 83.9298ZM111.483 91.4636L106.41 98.3674L105.792 97.9132L110.865 91.0095L111.483 91.4636ZM108.945 89.6477L103.919 96.4886L103.311 96.0421L108.338 89.2012L108.945 89.6477ZM110.174 92.761L109.605 93.5362L106.912 91.5579L107.482 90.7827L110.174 92.761ZM107.819 95.9666L107.257 96.7314L104.565 94.7531L105.127 93.9884L107.819 95.9666ZM107.99 87.655L101.724 96.1825L101.106 95.7283L107.372 87.2008L107.99 87.655ZM106.273 92.3624L105.711 93.1272L104.234 92.0419L104.796 91.2771L106.273 92.3624ZM105.806 87.6634L101.118 94.0433L99.1274 92.5808L103.238 86.9866L102.012 86.086L102.574 85.3212L104.365 86.6375L100.255 92.2317L101.104 92.8552L105.229 87.24L105.806 87.6634ZM102.815 85.4983L97.9348 92.1401L97.3376 91.7014L102.218 85.0595L102.815 85.4983ZM96.81 107.752L96.0736 108.371L88.5279 99.3957L89.2643 98.7766L96.81 107.752ZM97.685 96.4698L96.9486 97.0889C96.4511 97.5072 95.9724 97.9209 95.5125 98.3301C95.0516 98.7516 94.5952 99.1919 94.1434 99.651C93.6971 100.117 93.2415 100.619 92.7767 101.157L92.1868 100.617C92.8978 99.7923 93.5921 99.0558 94.2695 98.4071C94.9469 97.7583 95.6671 97.1133 96.43 96.4719L97.1663 95.8529L97.685 96.4698ZM102.189 101.787L98.0592 105.258L95.4073 102.104L98.7707 99.2765L96.7463 96.8684L97.4926 96.241L100.027 99.2561L96.6639 102.084L98.2869 104.014L101.67 101.17L102.189 101.787ZM87.4189 112.518L86.6618 112.893L86.2576 112.077C86.0306 111.619 85.8985 111.148 85.8614 110.663C85.8243 110.179 85.8589 109.692 85.9653 109.204C86.0716 108.716 86.2399 108.246 86.4701 107.793C86.6926 107.345 86.9576 106.923 87.2652 106.529C87.5688 106.146 87.8937 105.806 88.2396 105.509L88.982 106.041C88.671 106.291 88.3754 106.583 88.0952 106.915C87.8111 107.259 87.5637 107.629 87.353 108.023C87.1385 108.429 86.9762 108.844 86.8662 109.266C86.7484 109.692 86.7005 110.112 86.7223 110.527C86.7364 110.945 86.8338 111.337 87.0147 111.702L87.4189 112.518ZM87.2558 112.598L86.522 112.962L86.1179 112.147C85.937 111.782 85.6842 111.467 85.3595 111.202C85.0349 110.938 84.6655 110.719 84.2514 110.547C83.8411 110.383 83.4151 110.265 82.9735 110.194C82.5242 110.127 82.0805 110.1 81.6425 110.114C81.1967 110.132 80.7817 110.192 80.3977 110.296L80.4357 109.377C80.8818 109.282 81.349 109.229 81.8374 109.219C82.3297 109.217 82.8256 109.261 83.3253 109.352C83.8172 109.447 84.2915 109.594 84.7481 109.793C85.2009 110.004 85.6108 110.275 85.9779 110.606C86.3372 110.94 86.6284 111.333 86.8517 111.783L87.2558 112.598ZM87.9059 102.816L78.4015 107.527L78.0493 106.817L87.5538 102.105L87.9059 102.816ZM71.7677 111.938C71.9797 111.893 72.1782 111.931 72.3631 112.051C72.5499 112.18 72.6676 112.358 72.7162 112.587C72.7719 112.85 72.7397 113.074 72.6195 113.259C72.4993 113.444 72.3332 113.559 72.1212 113.604C71.9093 113.649 71.7108 113.611 71.5258 113.491C71.3324 113.373 71.2078 113.182 71.152 112.919C71.1034 112.69 71.1426 112.478 71.2695 112.283C71.3897 112.098 71.5558 111.983 71.7677 111.938ZM63.1888 109.196L62.9571 118.709L61.6314 118.676L59.9 113.42C59.7865 113.096 59.6776 112.76 59.5734 112.41C59.4604 112.07 59.3516 111.729 59.2472 111.388L59.1823 111.387C59.0614 111.722 58.9405 112.057 58.8197 112.392C58.6986 112.736 58.5822 113.067 58.4704 113.385L56.485 118.551L55.1594 118.519L55.3911 109.006L56.3918 109.03L56.2579 114.527C56.2511 114.805 56.2396 115.099 56.2234 115.411C56.1982 115.731 56.1731 116.051 56.148 116.371C56.1139 116.7 56.0849 117.002 56.0608 117.279L56.1128 117.281L56.9191 115.142L58.9023 110.066L59.6561 110.085L61.3898 115.25L62.091 117.426L62.143 117.427C62.1238 117.15 62.1095 116.846 62.1002 116.516C62.0907 116.195 62.0855 115.874 62.0846 115.554C62.0749 115.241 62.0734 114.946 62.0802 114.669L62.2141 109.172L63.1888 109.196ZM52.7914 108.705L50.8639 118.024L45.5553 116.926L45.7396 116.035L49.9916 116.914L50.6262 113.846L47.0489 113.106L47.2332 112.215L50.8105 112.955L51.5504 109.378L47.1584 108.469L47.3427 107.578L52.7914 108.705ZM43.5525 106.295L40.5846 114.373L43.3057 115.373L42.9919 116.227L36.5124 113.846L36.8262 112.992L39.5596 113.996L42.5275 105.918L43.5525 106.295ZM39.941 104.957L32.5146 111.737L31.4774 111.168L33.1937 101.256L34.1967 101.806L33.1062 107.361C33.0032 107.928 32.895 108.476 32.7816 109.007C32.6641 109.546 32.5442 110.098 32.4218 110.663L32.4673 110.688C32.8633 110.273 33.2606 109.873 33.6593 109.489C34.0537 109.112 34.4583 108.726 34.8729 108.331L38.995 104.438L39.941 104.957ZM37.0668 106.791L36.6541 107.543L32.8246 105.442L33.2373 104.69L37.0668 106.791ZM32.1029 100.418L26.2629 107.931L24.1793 106.312C23.6114 105.87 23.1745 105.415 22.8688 104.947C22.5578 104.486 22.4117 104.01 22.4306 103.52C22.4426 103.024 22.6587 102.506 23.0789 101.966C23.4831 101.446 23.9311 101.102 24.4228 100.936C24.9093 100.776 25.425 100.776 25.9701 100.936C26.5083 101.091 27.0545 101.384 27.6088 101.815L28.8815 102.804L31.251 99.7557L32.1029 100.418ZM28.347 103.492L27.1974 102.598C26.5131 102.066 25.9084 101.799 25.3831 101.797C24.851 101.79 24.3669 102.067 23.9308 102.628C23.4947 103.189 23.3652 103.708 23.5425 104.186C23.7197 104.665 24.1539 105.172 24.845 105.709L25.9535 106.571L28.347 103.492ZM23.6484 92.5654C24.1761 93.1515 24.4947 93.8034 24.6044 94.521C24.7076 95.2444 24.5982 95.9843 24.2763 96.7406C23.9485 97.4905 23.4078 98.2047 22.6543 98.8831C21.9007 99.5616 21.1403 100.019 20.3731 100.255C19.6001 100.484 18.8658 100.504 18.17 100.314C17.4678 100.13 16.8529 99.7448 16.3252 99.1587C15.7975 98.5726 15.4817 97.924 15.3778 97.2128C15.2618 96.501 15.3612 95.7759 15.676 95.0376C15.9851 94.2929 16.5164 93.5813 17.27 92.9028C18.0236 92.2244 18.7933 91.7646 19.5792 91.5235C20.3592 91.276 21.1036 91.2414 21.8122 91.4197C22.5086 91.5974 23.1207 91.9793 23.6484 92.5654ZM22.9431 93.2004C22.5488 92.7624 22.0843 92.4926 21.5496 92.3909C21.0149 92.2892 20.4441 92.3483 19.8374 92.568C19.2241 92.7936 18.6148 93.179 18.0094 93.724C17.4104 94.2633 16.9731 94.8203 16.6975 95.395C16.4154 95.9755 16.3034 96.5311 16.3615 97.0619C16.4131 97.5985 16.6361 98.0858 17.0304 98.5237C17.4248 98.9617 17.8889 99.2377 18.423 99.3516C18.9448 99.4649 19.5091 99.4116 20.1159 99.1919C20.7162 98.9779 21.3159 98.6012 21.9149 98.0619C22.5203 97.5168 22.9673 96.9512 23.2558 96.3649C23.5378 95.7844 23.6563 95.223 23.6111 94.6806C23.5601 94.1318 23.3374 93.6384 22.9431 93.2004ZM19.615 88.0136L11.5959 93.137L11.015 92.2277L18.2672 87.5943L15.9995 84.0449L16.7664 83.5549L19.615 88.0136ZM15.9876 82.0614L7.4472 86.2584L6.9713 85.29L15.5117 81.093L15.9876 82.0614ZM13.7546 76.1519C13.9838 76.7878 14.0757 77.4134 14.0302 78.0286C13.9737 78.6385 13.8092 79.2045 13.5367 79.7265L12.6236 79.3785C12.8485 78.9289 12.9891 78.4499 13.0453 77.9413C13.0905 77.4276 13.0278 76.9343 12.8574 76.4614C12.637 75.8499 12.325 75.4188 11.9215 75.1681C11.5097 74.9204 11.0756 74.8788 10.619 75.0434C10.2847 75.1638 10.0447 75.3286 9.89898 75.5378C9.75325 75.7469 9.65631 75.9891 9.60813 76.2644C9.55996 76.5397 9.52615 76.8421 9.50669 77.1716L9.39911 78.6751C9.38488 78.9934 9.33542 79.3291 9.25074 79.682C9.16313 80.0268 9.00635 80.3459 8.78042 80.6392C8.54634 80.9355 8.21323 81.1615 7.78111 81.3172C7.32452 81.4818 6.87833 81.509 6.44252 81.3989C6.00377 81.2807 5.61162 81.0489 5.26608 80.7036C4.91238 80.3613 4.64003 79.9251 4.44903 79.3951C4.25508 78.857 4.17922 78.327 4.22143 77.8051C4.26365 77.2832 4.39346 76.8127 4.61086 76.3934L5.4574 76.7102C5.29053 77.0651 5.19134 77.4417 5.15985 77.84C5.12542 78.2301 5.18607 78.6412 5.34181 79.0734C5.52988 79.5952 5.80351 79.971 6.16271 80.2008C6.52191 80.4306 6.9135 80.4691 7.33747 80.3163C7.63914 80.2076 7.8599 80.0405 7.99975 79.8151C8.1396 79.5897 8.22953 79.3408 8.26955 79.0684C8.29848 78.7908 8.32627 78.5228 8.35292 78.2645L8.43604 76.7698C8.45939 76.3744 8.52302 76.0014 8.62694 75.6508C8.72792 75.2919 8.89987 74.9766 9.14277 74.7048C9.37752 74.436 9.71911 74.2207 10.1675 74.0591C10.6323 73.8916 11.1003 73.8611 11.5717 73.9676C12.0401 74.0659 12.4652 74.2997 12.847 74.6687C13.2287 75.0378 13.5313 75.5322 13.7546 76.1519ZM7.32528 66.8871C7.35488 67.1017 7.30308 67.297 7.16986 67.4728C7.02806 67.6499 6.84125 67.7544 6.60945 67.7863C6.3433 67.8231 6.1223 67.7748 5.94645 67.6416C5.77059 67.5084 5.66786 67.3344 5.63825 67.1198C5.60864 66.9052 5.66045 66.7099 5.79367 66.5341C5.9257 66.3496 6.12479 66.2391 6.39094 66.2023C6.62275 66.1704 6.83146 66.2247 7.01708 66.3653C7.19294 66.4985 7.29567 66.6724 7.32528 66.8871ZM1.36958 57.7222L1.85653 53.3161L8.96326 54.1014L8.47632 58.5076L1.36958 57.7222ZM2.52035 54.2919L2.2319 56.902L7.81392 57.5189L8.10237 54.9088L2.52035 54.2919ZM0.940963 49.0557L1.04235 48.1383L12.6845 49.4249L12.5831 50.3423L0.940963 49.0557ZM4.85313 54.1312L5.15015 51.4435L5.93835 51.5306L5.64133 54.2183L4.85313 54.1312ZM0.945208 51.3843L1.0466 50.4668L11.8359 51.6592L11.7345 52.5766L0.945208 51.3843ZM9.75084 45.9656L10.0627 45.1107C10.3122 44.4268 10.5313 43.8009 10.7199 43.2332C10.9086 42.6655 11.0736 42.1122 11.2148 41.5733C11.3509 41.0233 11.471 40.4536 11.5753 39.8644L12.3559 40.0384C12.2457 40.644 12.1211 41.2259 11.9821 41.784C11.8378 42.331 11.6725 42.8981 11.486 43.485C11.2944 44.0609 11.0724 44.6949 10.8199 45.3869L10.508 46.2418L9.75084 45.9656ZM3.19262 43.5731L5.0594 38.4559L5.81659 38.7322L4.2795 42.9455L10.3492 45.1598L10.0195 46.0636L3.19262 43.5731ZM6.52747 44.0286L8.05119 39.8518L8.78396 40.1191L7.26023 44.2959L6.52747 44.0286ZM4.74523 36.1687L5.07492 35.265L16.0786 39.2793L15.7489 40.183L4.74523 36.1687ZM9.45682 37.0988L10.2053 35.0471L10.9747 35.3278L10.2262 37.3795L9.45682 37.0988ZM8.20755 29.6113L12.9713 22.4909L13.6088 22.9174L8.84504 30.0378L8.20755 29.6113ZM10.8224 31.3138L15.5428 24.2582L16.1695 24.6775L11.4491 31.7331L10.8224 31.3138ZM9.45728 28.2577L9.99221 27.4581L12.7691 29.3159L12.2341 30.1155L9.45728 28.2577ZM11.6693 24.9514L12.197 24.1626L14.9738 26.0204L14.4461 26.8092L11.6693 24.9514ZM11.8648 33.2625L17.749 24.4673L18.3865 24.8938L12.5023 33.689L11.8648 33.2625ZM13.3725 28.484L13.9002 27.6952L15.4237 28.7145L14.896 29.5032L13.3725 28.484ZM14.0464 33.1579L18.4487 26.5777L20.5016 27.9512L16.6414 33.721L17.9056 34.5668L17.3779 35.3555L15.5303 34.1194L19.3904 28.3496L18.5152 27.7641L14.6406 33.5555L14.0464 33.1579ZM17.1294 35.1893L21.7124 28.339L22.3283 28.751L17.7453 35.6013L17.1294 35.1893ZM22.1489 12.6924L22.8573 12.0416L30.7908 20.6763L30.0824 21.3272L22.1489 12.6924ZM21.7714 24.0024L22.4798 23.3515C22.9585 22.9118 23.4185 22.4773 23.8599 22.0483C24.3018 21.6069 24.7383 21.147 25.1696 20.6684C25.5949 20.1834 26.0279 19.662 26.4687 19.1041L27.0818 19.6177C26.4077 20.4724 25.7465 21.2387 25.0983 21.9167C24.4501 22.5946 23.759 23.2707 23.0251 23.9451L22.3167 24.5959L21.7714 24.0024ZM17.0379 18.8889L21.0107 15.2388L23.7988 18.2734L20.5632 21.2463L22.6917 23.5629L21.9737 24.2226L19.3087 21.322L22.5443 18.3491L20.838 16.492L17.5832 19.4824L17.0379 18.8889ZM31.3196 7.51798L32.0594 7.10961L32.4991 7.90628C32.7463 8.35394 32.899 8.81902 32.9575 9.30152C33.016 9.78402 33.0029 10.2714 32.9182 10.7636C32.8335 11.2558 32.6862 11.7331 32.4762 12.1955C32.2738 12.6538 32.0276 13.0866 31.7378 13.4941C31.4514 13.8898 31.1419 14.2438 30.8094 14.556L30.0443 14.0577C30.3438 13.7934 30.6262 13.489 30.8915 13.1446C31.1601 12.7884 31.391 12.4085 31.584 12.005C31.7804 11.5897 31.9242 11.1687 32.0154 10.7422C32.1143 10.3115 32.1436 9.88941 32.1035 9.47598C32.0709 9.05837 31.9562 8.67126 31.7594 8.31465L31.3196 7.51798ZM31.4789 7.43002L32.1959 7.03422L32.6357 7.83089C32.8326 8.1875 33.099 8.49084 33.435 8.74092C33.7711 8.99099 34.1498 9.19278 34.5711 9.34628C34.9882 9.4922 35.4189 9.59101 35.8633 9.64272C36.3152 9.69024 36.7596 9.69733 37.1966 9.664C37.6412 9.62648 38.053 9.54762 38.4321 9.42743L38.4347 10.3467C37.9933 10.4616 37.5288 10.5349 37.0414 10.5664C36.5497 10.5903 36.0523 10.5679 35.5491 10.4992C35.0535 10.4263 34.5731 10.3005 34.1081 10.1216C33.6465 9.93093 33.225 9.67852 32.8437 9.36434C32.47 9.04598 32.1616 8.66677 31.9187 8.2267L31.4789 7.43002ZM31.2618 17.2316L40.5487 12.105L40.932 12.7992L31.645 17.9258L31.2618 17.2316ZM46.9792 7.39743C46.7694 7.45174 46.5695 7.42294 46.3794 7.31102C46.1871 7.19071 46.0616 7.0173 46.0029 6.79077C45.9356 6.53068 45.9579 6.30557 46.0698 6.11545C46.1817 5.92533 46.3425 5.80311 46.5523 5.7488C46.762 5.69449 46.962 5.72329 47.1521 5.8352C47.3506 5.94495 47.4835 6.12986 47.5509 6.38995C47.6095 6.61648 47.5798 6.83009 47.4617 7.03077C47.3498 7.2209 47.1889 7.34312 46.9792 7.39743Z" fill="#AAAAAA"/>
</svg>
